<svg width="154" height="159" viewBox="0 0 154 159" fill="none" xmlns="http://www.w3.org/2000/svg">
<path d="M152.973 93.1571C152.496 92.7918 151.939 92.5474 151.347 92.4449C150.724 92.3018 150.088 92.2119 149.455 92.1121L141.255 90.9306C140.428 90.7771 139.583 90.7323 138.744 90.7975C138.323 90.832 137.913 90.9498 137.538 91.1441C137.163 91.3383 136.83 91.6051 136.559 91.929C136.315 92.2304 136.181 92.6061 136.179 92.994C136.225 93.3843 136.352 93.7607 136.552 94.0989C136.632 94.2569 136.7 94.4204 136.756 94.5881C136.834 94.9645 136.932 95.3366 137.049 95.703C137.085 95.7823 137.132 95.8562 137.189 95.9226C137.19 95.9415 137.19 95.9604 137.189 95.9792C137.099 96.4385 137.388 96.9177 137.258 97.3604C137.145 97.7397 136.776 97.9694 136.542 98.2855C136.387 98.5098 136.301 98.7748 136.295 99.0476C136.289 99.3204 136.363 99.5889 136.509 99.8198C136.759 100.206 137.212 100.469 137.342 100.911C137.512 101.494 137.052 102.056 136.642 102.505C135.889 103.333 135.192 104.21 134.557 105.131C134.379 105.358 134.264 105.628 134.224 105.913C134.188 106.492 134.744 107.002 134.647 107.577C134.571 108.03 134.128 108.306 133.745 108.576C132.329 109.508 131.193 111.005 131.08 112.699C130.717 110.004 129.599 107.466 127.856 105.378C127.38 104.805 126.857 104.229 126.66 103.504C126.587 103.214 126.574 102.905 126.474 102.625C126.141 101.743 125.082 101.364 124.619 100.552C124.286 99.9795 124.286 99.244 123.873 98.7415C123.46 98.2389 122.81 98.1258 122.454 97.6399C122.276 97.3108 122.124 96.968 122.001 96.6149C121.851 96.3269 121.641 96.0748 121.385 95.876C121.335 95.8368 121.284 95.8001 121.231 95.7662C121.287 95.7168 121.331 95.6563 121.361 95.5886C121.392 95.521 121.408 95.4477 121.408 95.3735C121.408 94.9841 121.021 94.7279 120.685 94.5349C120.252 94.2886 119.829 94.0223 119.416 93.7461C119.867 93.5365 120.257 93.2172 120.552 92.8176C120.922 92.2215 121.074 91.5163 120.985 90.8208C120.962 90.2594 120.752 89.7217 120.389 89.2932C120.179 89.0702 119.916 88.9105 119.696 88.7008C119.126 88.1451 118.933 87.323 118.697 86.5643C118.384 85.5658 117.894 84.5175 116.981 83.9884C116.542 83.7321 116.029 83.6123 115.599 83.3427C115.169 83.0732 114.81 82.564 114.96 82.0748C115.06 81.742 115.369 81.5123 115.579 81.2294C115.83 80.8637 115.926 80.4139 115.847 79.9778C115.767 79.5417 115.519 79.1544 115.156 78.8998C114.91 78.7434 114.607 78.6069 114.557 78.3207C114.364 78.2707 114.189 78.1673 114.052 78.0225C113.916 77.8777 113.823 77.6973 113.784 77.502C113.709 77.1107 113.709 76.7087 113.784 76.3173C113.871 75.6983 113.956 75.0815 114.04 74.4669C114.187 74.5279 114.344 74.5592 114.503 74.5592C114.662 74.5592 114.82 74.5279 114.966 74.4669C115.255 74.9343 115.589 75.3714 115.966 75.7715C116.98 76.9682 117.77 78.338 118.297 79.815C118.487 80.3475 118.68 80.9432 119.173 81.2261C119.343 81.3226 119.536 81.3725 119.703 81.4757C119.908 81.6188 120.084 81.7994 120.222 82.0082C120.622 82.5373 121.021 83.0632 121.418 83.5923L121.438 83.6722C121.449 83.7191 121.467 83.764 121.491 83.8053C121.565 83.8883 121.667 83.9405 121.778 83.9518C123.003 84.2346 124.379 84.4942 125.441 83.8253C126.401 83.2262 126.82 82.0415 127.633 81.2494C128.209 80.687 129.025 80.251 129.188 79.4589C128.994 79.399 128.803 79.329 128.615 79.2493C128.782 79.0829 128.948 78.8898 129.175 78.6702C129.504 78.3483 129.801 77.9949 130.061 77.6152C130.342 77.1468 130.566 76.6462 130.727 76.1243C131.369 74.2961 132.013 72.4668 132.659 70.6363C132.965 69.7711 133.272 68.8991 133.658 68.0571C134.058 67.1452 134.531 66.27 134.967 65.3747C136.093 63.0465 136.962 60.6026 137.558 58.0864C137.664 57.7431 137.699 57.382 137.662 57.0247C137.568 56.449 137.132 55.9964 136.716 55.587C136.297 55.1342 135.82 54.7391 135.297 54.4122C135.034 54.249 134.742 54.1397 134.436 54.0906C134.131 54.0414 133.819 54.0535 133.518 54.126C132.666 54.3756 132.129 55.2476 131.933 56.1229C131.736 56.9981 131.81 57.9 131.726 58.7853C131.606 60.0666 131.167 61.3046 131.06 62.5892C131.003 63.3313 131.06 64.0835 130.97 64.8256C130.806 65.7969 130.468 66.7305 129.971 67.5812C128.891 69.6102 127.429 71.4115 125.664 72.8861C125.461 73.0558 125.251 73.2189 125.052 73.4019C125.052 73.2588 125.075 73.1124 125.095 72.9693C124.95 73.007 124.808 73.0571 124.672 73.1191C124.689 72.951 124.672 72.7813 124.622 72.6199C124.355 71.8245 123.17 71.6214 122.957 70.8127C122.921 70.6127 122.902 70.4101 122.9 70.207C122.83 69.4982 122.347 68.8991 122.181 68.2102C122.027 67.5746 122.144 66.879 121.847 66.2899C121.595 65.9216 121.297 65.5862 120.962 65.2915C120.561 64.8348 120.273 64.2913 120.119 63.7041C120.076 63.541 120.036 63.3713 119.989 63.2082C120.04 62.8389 119.998 62.4629 119.869 62.1133C119.566 61.3612 118.783 60.8786 118.5 60.1165C118.28 59.5241 118.377 58.7853 117.961 58.326C117.739 58.1066 117.469 57.9434 117.171 57.8501C115.647 57.2569 114.047 56.8794 112.418 56.7286C111.506 56.6454 110.5 56.5988 109.847 55.9565C109.084 55.211 109.048 53.8698 108.155 53.294C107.369 52.7848 106.257 53.1609 105.647 53.8764C105.555 53.9817 105.471 54.0929 105.394 54.2092C105.283 53.7632 105.259 53.2998 105.324 52.8447C105.324 52.7316 105.347 52.6151 105.357 52.5119C106.861 52.0209 108.141 51.011 108.968 49.6632C108.968 49.6632 108.968 49.6632 108.968 49.6831L109.008 49.7863C109.104 50.0292 109.258 50.2622 109.484 50.2888C109.635 50.287 109.78 50.2342 109.897 50.1391C110.098 49.9995 110.283 49.8389 110.45 49.6598C110.534 49.5666 110.614 49.4701 110.69 49.3703C110.843 49.1625 110.975 48.9394 111.083 48.7047C111.248 48.3515 111.36 47.9758 111.416 47.5898C111.476 47.2038 111.482 46.8077 111.549 46.4217C111.611 46.1228 111.692 45.8283 111.792 45.5397C111.825 45.4432 111.859 45.3467 111.889 45.2502C111.919 45.1537 111.962 45.0239 111.995 44.9174C112.204 44.2329 112.316 43.5228 112.328 42.8074C112.328 42.6876 112.328 42.5678 112.328 42.448C112.316 41.9811 112.211 41.5214 112.019 41.0957C111.827 40.6699 111.552 40.2868 111.209 39.9686C110.636 39.4994 109.877 39.303 109.457 38.6674C109.184 38.2414 109.124 37.6923 108.964 37.1931C108.792 36.5957 108.455 36.0586 107.992 35.6427C107.529 35.2268 106.959 34.9488 106.347 34.8402C105.609 34.7593 104.868 34.9629 104.275 35.4093L104.228 35.4459C103.898 35.6979 103.618 36.0094 103.402 36.3644C102.962 36.2433 102.559 36.0145 102.23 35.6988C101.897 35.3893 101.64 34.9999 101.304 34.7004C100.99 34.4127 100.604 34.2146 100.186 34.1268C99.7694 34.039 99.3363 34.0647 98.9325 34.2012C98.5165 34.3677 98.146 34.6303 97.8513 34.9676C97.5566 35.3049 97.3461 35.7071 97.2371 36.1414C97.054 36.827 97.0873 37.6157 96.7042 38.1881C96.4078 38.6341 95.9215 38.8538 95.5818 39.2598C95.3707 39.5169 95.2266 39.8221 95.1621 40.1484C95.1217 40.3308 95.1027 40.5173 95.1055 40.7041C95.1055 40.7873 95.1055 40.8705 95.1255 40.9504C95.1255 40.9504 95.1255 40.977 95.1255 40.9903C95.1373 41.0815 95.1562 41.1717 95.1821 41.2599C95.2768 41.5973 95.4464 41.909 95.6784 42.1718C95.8982 42.4235 96.1728 42.6215 96.4811 42.7509C96.6072 42.7999 96.7362 42.841 96.8674 42.874L97.2638 42.9639L97.4037 42.9971C96.9254 43.8945 96.6598 44.8896 96.6275 45.9058C96.5951 46.9219 96.7969 47.9319 97.2172 48.8578C97.2172 48.951 97.1939 49.0442 97.1839 49.1373C97.1296 50.4478 97.1875 51.7605 97.357 53.0611C97.4037 53.5769 97.4303 54.146 97.1139 54.5554C96.9698 54.7164 96.8078 54.8604 96.631 54.9847C96.8108 54.7517 96.994 54.5221 97.1805 54.2924C96.7109 53.8199 95.9682 53.76 95.302 53.8066C94.0128 53.9028 92.7613 54.2848 91.6383 54.9248C90.8922 55.3541 90.1262 55.9232 89.2735 55.8233C88.7706 55.7668 88.2743 55.4905 87.7847 55.6236C87.5095 55.7362 87.2525 55.8887 87.022 56.0763C86.8398 56.2068 86.62 56.2746 86.3958 56.2693C85.8729 55.627 85.0635 55.191 84.4374 54.6685C83.7247 54.0346 83.0724 53.3361 82.4889 52.5818C81.4098 51.2806 80.334 49.976 79.2748 48.6614C78.3822 47.5565 77.4663 46.3618 77.3097 44.9474C77.2937 44.807 77.286 44.6659 77.2864 44.5247C77.3081 43.8526 77.3928 43.1841 77.5395 42.5279C77.579 42.3695 77.579 42.2038 77.5395 42.0453C77.4396 41.7125 77.0566 41.5894 76.7269 41.5162C76.7702 41.2599 76.8001 40.997 76.8168 40.7474C77.0033 37.8853 76.8001 34.9766 77.4063 32.1744C77.6361 31.0961 78.0125 30.0045 78.7885 29.2225C80.0042 27.9944 82.0393 27.6982 82.9719 26.2439C83.7512 25.0325 83.4415 23.3186 82.4623 22.2503C81.4831 21.182 79.9743 20.746 78.5387 20.7992C78.1359 20.7854 77.7382 20.892 77.3963 21.1054C77.0768 21.389 76.8378 21.7517 76.7035 22.1571L75.2747 25.6282C74.8604 26.5319 74.5109 27.4639 74.2289 28.4171C73.8292 29.8748 73.7392 31.4123 73.4228 32.8833C73.4228 34.0148 72.6934 35.4259 72.2937 36.4676C71.8474 37.639 71.3645 38.7972 70.9615 39.9919C70.8615 40.2915 70.5118 41.18 70.2953 41.9888C70.2135 42.0363 70.1375 42.0933 70.0688 42.1585C69.8949 42.3812 69.7369 42.6158 69.5959 42.8607C69.2928 43.2601 68.7999 43.473 68.4668 43.8591C68.1337 44.2451 68.0638 44.954 68.5267 45.147C68.6207 45.1786 68.7179 45.1998 68.8165 45.2103C68.8772 45.2154 68.9373 45.2254 68.9964 45.2402C69.496 45.38 69.6925 46.009 69.6192 46.5282C69.5459 47.0473 69.2861 47.5266 69.2428 48.0458C69.1529 48.9643 69.6925 49.8196 70.2121 50.5917C70.75 51.4287 71.3442 52.2281 71.9906 52.9845C72.4603 53.5104 72.9898 53.9829 73.4628 54.4888C75.2647 56.3392 76.6969 58.5024 78.3156 60.5125C78.8979 61.2712 79.5601 61.9652 80.2907 62.5825C80.7677 62.9554 81.2672 63.2989 81.7861 63.6109L84.5706 65.3747C84.8863 65.606 85.2437 65.7743 85.6231 65.8706C85.7469 65.8873 85.8723 65.8873 85.9961 65.8706C86.0128 65.9538 86.0261 66.0337 86.0461 66.1169C86.2626 66.9888 86.7389 67.7809 86.7922 68.6695C86.8454 69.5581 86.7655 70.4666 86.8288 71.3652C86.8887 72.1939 87.0719 73.0292 87.1186 73.8446C87.2118 75.4154 86.8255 76.9662 86.4524 78.5038C85.8895 80.7535 85.5498 83.0499 84.454 85.0899C84.1476 85.6524 83.7879 86.2248 83.7879 86.8671C83.7879 86.9436 83.7879 87.0235 83.8079 87.1001L83.3083 87.3829C83.1617 87.4661 83.0152 87.5493 82.882 87.6359C82.2491 88.0486 81.573 88.5045 81.3132 89.2167C81.1034 89.7924 81.2 90.4514 80.9468 91.0105C80.9348 91.0356 80.9214 91.06 80.9068 91.0837C80.6404 91.6029 80.1108 91.9889 79.9909 92.558C79.901 92.994 80.0742 93.4566 79.9909 93.8892C79.9909 93.8892 79.9909 93.8892 79.9909 93.9059C79.9151 94.1232 79.855 94.3456 79.8111 94.5715C79.8075 94.6453 79.8142 94.7192 79.831 94.7911C79.8945 95.0433 80.0341 95.2698 80.2307 95.4401C80.3507 95.5552 80.4811 95.6588 80.6204 95.7496C80.7625 95.8428 80.9091 95.9293 81.0601 96.0092L81.1467 96.0558C81.2732 96.1223 81.3998 96.1856 81.5297 96.2455L81.6163 96.2821C81.7662 96.3486 81.9194 96.4085 82.0726 96.4618L82.1792 96.4951C82.2991 96.535 82.4223 96.5716 82.5456 96.6016L82.6288 96.6282L82.7054 96.6448L83.0385 96.7147L83.1617 96.738C83.3083 96.7624 83.4582 96.7824 83.6114 96.7979H83.7446C83.8578 96.7979 83.9677 96.8146 84.0777 96.8179H84.2342C84.3508 96.8179 84.464 96.8179 84.5673 96.8179H84.6872C84.8437 96.8179 85.0002 96.7946 85.1568 96.7746H85.2068C85.3466 96.7546 85.4865 96.7314 85.6264 96.7014L85.733 96.6781C85.8629 96.6481 85.9928 96.6182 86.1227 96.5783L86.1926 96.5583C86.3492 96.5117 86.5057 96.4618 86.6589 96.4019C87.1891 96.1842 87.7033 95.9295 88.1977 95.6398C88.5308 95.4567 88.8638 95.2703 89.1969 95.1006C89.4439 94.9762 89.6974 94.8651 89.9563 94.7678C90.5863 94.4989 91.2715 94.3848 91.9547 94.435C92.2918 94.4809 92.6256 94.5487 92.9539 94.638C92.9539 94.6746 92.9539 94.7112 92.9539 94.7479C93.2248 96.3453 93.4924 97.9427 93.7566 99.5402C94.1926 99.2265 94.6538 98.9494 95.1355 98.7115C95.0454 98.9527 94.9861 99.2043 94.959 99.4603C94.939 99.6584 94.939 99.858 94.959 100.056C94.9889 100.372 95.0556 100.722 94.8657 100.971C94.7491 101.124 94.5326 101.211 94.4694 101.384C94.4231 101.561 94.4118 101.745 94.4361 101.926C94.4224 102.133 94.3349 102.328 94.1894 102.476C94.0439 102.624 93.8501 102.715 93.6434 102.732C93.7387 103 93.7409 103.292 93.6497 103.561C93.5584 103.83 93.379 104.061 93.1404 104.216C93.0011 104.283 92.8711 104.368 92.7541 104.469C92.6401 104.616 92.5636 104.788 92.5309 104.972C92.0907 106.62 91.1854 108.106 89.923 109.255C89.4493 109.627 89.0172 110.048 88.634 110.513C88.3972 110.872 88.2016 111.257 88.0511 111.661C87.163 113.831 86.2615 116.002 85.3466 118.174C84.8404 119.389 84.3474 120.623 84.1876 121.931C83.7879 125.519 80.5904 128.561 81.19 132.122C81.3111 133.011 81.6701 133.852 82.2291 134.554C82.8953 135.356 83.8945 135.816 84.8937 136.188C87.4616 137.187 90.1695 137.733 92.8673 138.282L97.1039 139.15C97.9352 139.341 98.7788 139.475 99.6286 139.55C100.651 139.62 101.7 139.523 102.696 139.783C103.312 139.942 103.902 140.239 104.538 140.272C105.084 140.302 105.757 140.185 106.08 140.631C106.403 141.077 106.153 141.666 106.46 142.062C106.953 142.691 108.155 142.062 108.691 142.655C108.838 142.882 108.95 143.13 109.024 143.39C109.106 143.551 109.219 143.694 109.357 143.81C109.39 143.997 109.403 144.188 109.397 144.379C109.328 145.151 109.167 145.913 108.918 146.648C108.518 147.999 108.12 149.352 107.722 150.705C107.57 151.183 107.459 151.673 107.389 152.17C107.364 152.411 107.364 152.654 107.389 152.895C107.459 153.631 107.882 154.389 108.585 154.629C109.13 154.773 109.71 154.701 110.203 154.429C110.68 154.181 111.127 153.879 111.536 153.531C112.273 152.973 112.921 152.307 113.458 151.554C115.123 149.064 114.583 145.697 115.752 142.944C116.528 141.107 118.041 139.616 118.543 137.679C118.661 137.311 118.675 136.917 118.583 136.541C118.374 135.876 117.664 135.496 117.001 135.257H116.971C116.427 135.063 115.871 134.904 115.306 134.781C115.166 134.751 115.023 134.727 114.88 134.704C114.563 134.446 114.311 134.118 114.144 133.746C114.118 133.548 114.065 133.354 113.987 133.17C113.934 133.091 113.863 133.025 113.78 132.979C113.696 132.932 113.603 132.907 113.507 132.904C113.174 132.87 112.728 132.99 112.365 132.964C111.622 132.91 111.129 132.181 110.463 131.845C109.797 131.509 109.074 131.592 108.365 131.642C108.111 131.677 107.853 131.661 107.606 131.596C107.31 131.46 107.039 131.274 106.806 131.047C106.396 130.728 105.918 130.509 105.408 130.406C104.899 130.304 104.373 130.322 103.872 130.458C103.553 130.586 103.216 130.663 102.873 130.684C102.223 130.647 101.764 130.068 101.284 129.629C99.9716 128.427 98.1031 128.111 96.5111 127.323C96.2674 127.232 96.0642 127.057 95.9382 126.83C95.755 126.377 96.168 125.925 96.541 125.615L99.2788 123.342C102.276 120.853 106.023 118.979 107.416 115.328C107.561 114.839 107.786 114.377 108.082 113.961C108.19 113.834 108.314 113.722 108.452 113.628C109.057 113.236 109.791 113.093 110.5 113.228C111.364 113.422 112.182 113.779 112.911 114.28C114.104 115.001 115.264 115.778 116.392 116.61C117.509 117.407 118.572 118.279 119.573 119.219C121.321 120.883 122.777 122.856 124.405 124.65C126.034 126.444 127.896 128.118 130.158 128.977C132.419 129.835 135.154 129.799 137.095 128.358C139.337 126.694 140.056 123.718 140.622 120.989C141.871 119.785 142.248 117.951 142.857 116.33C143.24 115.302 143.73 114.333 144.143 113.308C144.636 112.103 145.022 110.859 145.409 109.617C145.846 108.371 146.144 107.079 146.295 105.767C146.454 103.694 145.898 101.487 146.481 99.5402C147.251 99.3705 147.95 98.9378 148.706 98.6849C149.832 98.3155 151.037 98.3754 152.23 98.3821H152.306C152.717 98.4257 153.131 98.3283 153.479 98.1058C153.879 97.773 153.942 97.2039 153.962 96.6881C154.008 95.4135 153.929 93.9824 152.973 93.1571ZM104.715 36.3877C104.439 36.4558 104.154 36.476 103.872 36.4476L104.715 36.3877Z" fill="url(#paint0_linear)"/>
<path d="M106.028 57.4406C105.624 57.7828 105.152 58.0337 104.642 58.1761L102.281 59.0214C100.998 59.4807 99.6594 59.9433 98.3071 59.7769C97.5511 59.6837 94.3103 59.2078 93.8207 58.6187C93.0746 57.7068 95.6892 56.3656 96.5818 55.5968C96.7841 55.4515 96.9716 55.2865 97.1414 55.1043C97.4745 54.6982 97.4312 54.1291 97.3845 53.6166C97.2151 52.3182 97.1572 51.0077 97.2113 49.6995C97.2373 49.3876 97.2818 49.0776 97.3446 48.771C97.6776 47.24 99.1031 47.7992 100.229 48.2052C101.584 48.645 102.894 49.2122 104.142 49.8992C104.523 50.095 104.853 50.375 105.108 50.7179C105.601 51.4634 105.405 52.4418 105.325 53.3803C105.255 54.1092 105.258 54.8081 105.715 55.3372C105.944 55.5395 106.155 55.7623 106.344 56.0028C106.451 56.2451 106.477 56.5149 106.421 56.7733C106.364 57.0317 106.226 57.2654 106.028 57.4406Z" fill="#FFB9B9"/>
<path d="M73.407 33.4558C73.7401 31.9815 73.8133 30.4606 74.213 28.9996C74.4952 28.0497 74.8447 27.121 75.2589 26.2207L76.7277 22.7962C76.8621 22.3919 77.1011 22.0302 77.4205 21.7479C77.7629 21.536 78.1603 21.4295 78.5629 21.4417C79.9984 21.3885 81.5072 21.8344 82.4864 22.8894C83.4657 23.9444 83.7754 25.6516 82.996 26.8597C82.0634 28.314 80.0284 28.6069 78.8127 29.8316C78.0366 30.6137 77.6603 31.7019 77.4305 32.7768C76.8243 35.5724 77.0275 38.471 76.8409 41.3264C76.781 42.215 76.6078 43.23 75.8417 43.6893C75.3787 43.916 74.8638 44.0159 74.3496 43.9788L72.1647 44.0154C71.7983 44.0154 70.4694 44.2451 70.2262 43.9689C69.7999 43.4863 70.7724 41.0835 70.949 40.5477C71.342 39.3596 71.8249 38.2015 72.2812 37.0333C72.6776 35.9917 73.407 34.5839 73.407 33.4558Z" fill="#FFB9B9"/>
<path d="M118.521 138.009C118.018 139.933 116.506 141.43 115.73 143.264C114.561 146.01 115.087 149.368 113.435 151.85C112.899 152.605 112.251 153.272 111.513 153.831C111.104 154.178 110.657 154.478 110.181 154.726C109.687 154.998 109.107 155.07 108.562 154.926C107.86 154.686 107.437 153.927 107.367 153.195C107.342 152.955 107.342 152.713 107.367 152.473C107.437 151.977 107.548 151.489 107.7 151.012C108.099 149.665 108.498 148.316 108.895 146.965C109.144 146.232 109.305 145.472 109.375 144.702C109.418 143.863 108.885 142.771 109.112 141.989C109.215 141.637 109.601 141.324 109.778 141.028C110.029 140.601 110.221 140.143 110.351 139.666C110.624 138.738 110.81 137.746 111.383 136.964C111.757 136.5 112.194 136.091 112.682 135.749C113.042 135.434 113.464 135.197 113.921 135.054C114.365 134.976 114.82 134.997 115.254 135.117C115.819 135.237 116.375 135.395 116.919 135.589H116.949C117.615 135.829 118.321 136.199 118.531 136.871C118.633 137.244 118.629 137.638 118.521 138.009Z" fill="#3F3D56"/>
<path d="M153.959 97.0944C153.939 97.6102 153.876 98.1859 153.476 98.5088C153.128 98.7312 152.715 98.8287 152.304 98.785H152.214C151.025 98.785 149.816 98.7184 148.69 99.0878C147.834 99.3707 147.048 99.8899 146.156 99.9931C144.927 100.133 143.771 99.4606 142.682 98.8748C141.656 98.3228 140.603 97.823 139.528 97.3772C138.821 97.0877 137.379 96.9013 137.04 96.1293C136.923 95.7639 136.825 95.3929 136.746 95.0177C136.691 94.85 136.623 94.6865 136.543 94.5285C136.343 94.1913 136.216 93.8161 136.17 93.4269C136.172 93.0391 136.306 92.6633 136.55 92.362C136.822 92.0406 137.154 91.776 137.529 91.5836C137.903 91.3911 138.312 91.2745 138.732 91.2404C139.571 91.1753 140.415 91.22 141.243 91.3736L149.443 92.5517C150.076 92.6415 150.712 92.7314 151.335 92.8845C151.926 92.987 152.484 93.2314 152.96 93.5967C153.929 94.4087 154.009 95.8364 153.959 97.0944Z" fill="#3F3D56"/>
<path d="M146.752 99.224C145.753 101.331 146.472 103.823 146.292 106.153C146.141 107.462 145.844 108.75 145.406 109.993C145.02 111.232 144.634 112.473 144.141 113.674C143.728 114.673 143.238 115.671 142.855 116.689C142.245 118.314 141.856 120.141 140.62 121.349C140.054 124.071 139.334 127.046 137.093 128.697C135.144 130.135 132.43 130.185 130.155 129.316C127.88 128.447 126.032 126.783 124.403 124.99C122.774 123.196 121.319 121.242 119.57 119.572C118.568 118.632 117.503 117.761 116.383 116.966C115.255 116.147 114.095 115.377 112.902 114.656C112.172 114.157 111.354 113.801 110.491 113.608C109.782 113.472 109.048 113.615 108.442 114.007C108.305 114.101 108.18 114.213 108.073 114.34C107.776 114.755 107.551 115.216 107.407 115.704C106.008 119.345 102.254 121.216 99.2564 123.698L96.5186 125.965C96.1456 126.274 95.7326 126.727 95.9158 127.176C96.0418 127.403 96.245 127.578 96.4886 127.669C98.0807 128.454 99.9492 128.77 101.262 129.968C101.741 130.408 102.201 130.987 102.85 131.02C103.193 131 103.531 130.925 103.849 130.797C104.351 130.662 104.876 130.644 105.385 130.746C105.895 130.847 106.373 131.065 106.784 131.383C107.017 131.61 107.287 131.796 107.583 131.932C107.831 131.997 108.089 132.013 108.343 131.978C109.052 131.929 109.805 131.865 110.441 132.181C111.077 132.498 111.6 133.243 112.343 133.296C112.706 133.323 113.139 133.203 113.485 133.236C113.58 133.239 113.674 133.265 113.757 133.312C113.841 133.358 113.912 133.423 113.965 133.503C114.042 133.686 114.095 133.878 114.121 134.075C114.258 134.544 114.717 134.831 115.017 135.217C115.477 135.809 115.543 136.614 115.497 137.363C115.346 139.705 114.302 141.899 112.579 143.493C112.09 143.993 111.466 144.34 110.784 144.492C110.442 144.563 110.087 144.526 109.767 144.384C109.448 144.242 109.182 144.004 109.005 143.703C108.931 143.444 108.819 143.197 108.672 142.971C108.136 142.382 106.934 143.008 106.441 142.379C106.134 141.986 106.354 141.357 106.061 140.951C105.768 140.545 105.062 140.618 104.519 140.595C103.883 140.561 103.293 140.262 102.677 140.105C101.678 139.846 100.632 139.942 99.6095 139.873C98.7597 139.798 97.9162 139.664 97.0848 139.473L92.8482 138.608C90.1504 138.059 87.4425 137.503 84.8746 136.521C83.892 136.148 82.9028 135.689 82.21 134.89C81.6516 134.189 81.2926 133.349 81.1709 132.461C80.568 128.91 83.7655 125.875 84.1685 122.297C84.3117 120.993 84.8346 119.761 85.3275 118.55C86.2313 116.384 87.1328 114.218 88.0321 112.05C88.1775 111.647 88.3674 111.26 88.5983 110.899C88.9815 110.435 89.4137 110.015 89.8872 109.644C91.1494 108.5 92.0548 107.016 92.4952 105.371C92.5279 105.188 92.6044 105.015 92.7183 104.868C92.8363 104.77 92.9661 104.686 93.1047 104.619C93.3426 104.464 93.5215 104.234 93.6127 103.965C93.7039 103.697 93.7021 103.405 93.6076 103.138C93.8144 103.121 94.0082 103.03 94.1536 102.882C94.2991 102.734 94.3867 102.539 94.4003 102.332C94.376 102.152 94.3874 101.969 94.4336 101.793C94.5136 101.62 94.7134 101.534 94.83 101.381C95.0198 101.131 94.9532 100.782 94.9232 100.469C94.9032 100.271 94.9032 100.071 94.9232 99.873C94.9961 99.1682 95.3116 98.5107 95.8158 98.0126C96.6119 97.2305 97.7443 97.4335 98.8434 97.2471C99.9398 97.0107 101.011 96.6685 102.041 96.2254C104.931 95.0876 107.974 94.3844 111.07 94.1388C114.182 93.8942 117.308 94.3915 120.19 95.5898C120.609 95.7595 121.004 95.9832 121.365 96.2554C121.622 96.4529 121.832 96.7039 121.982 96.9909C122.105 97.3432 122.256 97.6849 122.435 98.0126C122.791 98.4985 123.464 98.6549 123.853 99.1142C124.243 99.5734 124.276 100.349 124.6 100.918C125.063 101.73 126.135 102.106 126.455 102.988C126.555 103.268 126.568 103.574 126.641 103.863C126.821 104.589 127.361 105.161 127.837 105.734C129.583 107.82 130.701 110.359 131.061 113.055C131.168 111.368 132.303 109.874 133.726 108.942C134.109 108.692 134.552 108.416 134.628 107.963C134.725 107.391 134.169 106.882 134.205 106.299C134.246 106.015 134.361 105.746 134.538 105.521C135.173 104.601 135.87 103.726 136.623 102.901C137.033 102.452 137.493 101.903 137.323 101.311C137.193 100.868 136.74 100.608 136.49 100.222C136.344 99.9923 136.27 99.7242 136.276 99.4519C136.282 99.1796 136.368 98.9151 136.523 98.6915C136.757 98.3753 137.126 98.1457 137.239 97.7696C137.369 97.327 137.08 96.8478 137.17 96.3918C137.291 96.0267 137.533 95.7135 137.856 95.5033C138.298 95.1012 138.8 94.771 139.344 94.5248C140.224 94.192 141.203 94.3151 142.136 94.4449C143.694 94.6613 145.443 94.9941 146.322 96.2987C146.885 97.114 147.172 98.3521 146.752 99.224Z" fill="#3F3D56"/>
<path opacity="0.1" d="M153.959 97.094C153.939 97.6099 153.876 98.1857 153.476 98.5085C153.128 98.731 152.715 98.8284 152.304 98.7847H152.214C152.351 98.0925 153.193 97.6964 153.34 96.9942C153.365 96.7785 153.345 96.56 153.282 96.3521C153.219 96.1443 153.114 95.9516 152.973 95.7861C152.261 94.8243 151.115 94.2918 149.976 93.9024C146.758 92.8 143.31 92.5421 139.964 93.1536C139.054 93.3017 138.169 93.5738 137.333 93.9623C137.056 94.1355 136.789 94.3244 136.533 94.5281C136.333 94.1909 136.206 93.8157 136.16 93.4265C136.162 93.0386 136.296 92.6629 136.54 92.3615C136.812 92.0401 137.144 91.7756 137.519 91.5831C137.893 91.3906 138.302 91.274 138.722 91.2399C139.561 91.1748 140.405 91.2195 141.233 91.3731L149.433 92.5512C150.066 92.6411 150.702 92.7309 151.325 92.884C151.916 92.9865 152.474 93.2309 152.95 93.5962C153.929 94.4083 154.009 95.836 153.959 97.094Z" fill="black"/>
<path opacity="0.1" d="M118.521 138.009C118.018 139.932 116.506 141.43 115.73 143.264C114.561 146.009 115.087 149.367 113.435 151.85C112.899 152.604 112.251 153.272 111.513 153.83C111.104 154.178 110.657 154.478 110.181 154.726C109.687 154.998 109.107 155.069 108.562 154.925C107.86 154.686 107.437 153.927 107.367 153.195C107.342 152.955 107.342 152.713 107.367 152.473L107.387 152.526C107.676 153.225 108.149 153.957 108.895 154.08C109.175 154.1 109.457 154.062 109.721 153.969C109.986 153.876 110.229 153.729 110.434 153.538C111.533 152.656 112.173 151.341 112.782 150.073C113.259 149.159 113.637 148.196 113.908 147.201C114.041 146.635 114.105 146.056 114.241 145.49C114.874 142.741 117.029 140.498 117.505 137.712C117.544 137.521 117.553 137.324 117.532 137.13C117.469 136.877 117.373 136.633 117.245 136.405C117.13 136.147 117.045 135.877 116.992 135.599C117.658 135.839 118.364 136.208 118.574 136.88C118.66 137.254 118.642 137.645 118.521 138.009Z" fill="black"/>
<path opacity="0.1" d="M113.492 133.237C113.183 134.042 112.665 134.75 111.99 135.287C111.041 136.008 109.931 136.488 108.756 136.684C108.208 136.824 107.634 136.817 107.09 136.664C106.351 136.408 105.818 135.716 105.062 135.516C104.522 135.37 103.943 135.5 103.396 135.42C102.414 135.283 101.651 134.534 100.859 133.935C98.4304 132.112 95.243 131.523 92.8149 129.699C92.7068 129.632 92.6174 129.54 92.5551 129.429C92.5086 129.31 92.4915 129.181 92.5052 129.053C92.5142 127.947 92.763 126.856 93.2346 125.855C93.6208 125.157 94.0808 124.502 94.6068 123.901C96.7818 121.239 98.9667 118.556 101.571 116.31C102.664 115.368 103.856 114.49 105.235 114.064C106.001 113.827 107.513 113.604 108.446 114.004C108.308 114.098 108.184 114.209 108.076 114.336C107.78 114.751 107.554 115.212 107.41 115.701C106.008 119.345 102.254 121.216 99.2565 123.698L96.5187 125.965C96.1456 126.274 95.7326 126.727 95.9158 127.176C96.0418 127.403 96.245 127.578 96.4887 127.669C98.0807 128.454 99.9492 128.77 101.262 129.968C101.741 130.408 102.201 130.987 102.85 131.02C103.193 131 103.531 130.925 103.849 130.797C104.351 130.662 104.876 130.644 105.385 130.746C105.895 130.847 106.373 131.065 106.784 131.383C107.017 131.61 107.287 131.796 107.583 131.932C107.831 131.997 108.089 132.013 108.343 131.979C109.052 131.929 109.805 131.865 110.441 132.182C111.077 132.498 111.6 133.243 112.343 133.296C112.712 133.323 113.145 133.197 113.492 133.237Z" fill="black"/>
<path d="M82.8595 88.0688C82.2266 88.4748 81.5538 88.9341 81.294 89.6396C81.0809 90.2154 81.1808 90.8743 80.9243 91.4334C80.6679 91.9925 80.0917 92.3818 79.9651 92.9809C79.8752 93.4168 80.0517 93.8761 79.9651 94.312C79.8897 94.5387 79.8285 94.7699 79.7819 95.0042C79.7486 95.5001 80.1749 95.9028 80.5913 96.179C81.4777 96.755 82.4869 97.1153 83.538 97.2309C84.589 97.3465 85.6525 97.2142 86.6431 96.8446C87.5324 96.5118 88.3351 95.9693 89.1877 95.5434C90.0193 95.0649 90.9703 94.834 91.9289 94.8778C92.4784 94.9377 93.0047 95.1373 93.5542 95.2106C93.8257 95.2642 94.106 95.251 94.3712 95.1721C94.6364 95.0933 94.8784 94.9511 95.0763 94.758C95.2461 94.5239 95.36 94.2541 95.4094 93.9693C95.8724 92.1422 95.6625 90.2054 95.2229 88.3684C94.7833 86.5313 94.1171 84.7642 93.6475 82.9372C93.3144 81.5827 93.058 80.195 92.5017 78.9137C91.9455 77.6325 91.0096 76.4411 89.7006 75.9519C89.5974 75.9013 89.4803 75.886 89.3676 75.9086C89.2836 75.9437 89.2093 75.9985 89.1511 76.0684C88.1157 77.1647 87.3355 78.4761 86.8662 79.9088C86.3433 81.5029 86.2001 83.1934 85.7205 84.7942C85.514 85.4598 85.2475 86.3516 84.7213 86.8608C84.195 87.37 83.4556 87.6861 82.8595 88.0688Z" fill="#3F3D56"/>
<path opacity="0.1" d="M95.4194 93.9593C95.3635 94.2452 95.244 94.5147 95.0697 94.7481C94.8722 94.9419 94.6302 95.0842 94.3647 95.1626C94.0993 95.2409 93.8187 95.2529 93.5476 95.1974C93.0013 95.1308 92.4751 94.9278 91.9255 94.8646C90.967 94.8202 90.0157 95.0512 89.1844 95.5302C88.3318 95.9562 87.5191 96.4853 86.6365 96.8281C85.3453 97.3173 83.9347 97.3975 82.5964 97.0578C81.8856 96.8792 81.21 96.5822 80.598 96.1791C80.1783 95.9062 79.7553 95.5135 79.7887 95.0043C79.8352 94.7711 79.8964 94.541 79.9718 94.3154C80.0584 93.8795 79.8852 93.4202 79.9718 92.9842C80.0984 92.3852 80.6779 91.9858 80.9311 91.4334C81.1842 90.8809 81.0876 90.2186 81.2974 89.6429C81.5572 88.934 82.2333 88.478 82.8662 88.0687C83.499 87.6593 84.2517 87.3465 84.758 86.8506C84.8234 86.7734 84.8824 86.6911 84.9345 86.6044C85.2996 86.0417 85.5675 85.4219 85.7272 84.7706C86.2168 83.1665 86.35 81.4792 86.8696 79.8817C87.3409 78.4501 88.1221 77.14 89.1578 76.0445C89.2132 75.973 89.2868 75.9178 89.3709 75.8847C89.4834 75.8619 89.6002 75.8759 89.704 75.9247C91.0096 76.4172 91.9455 77.6086 92.5051 78.8899C93.0646 80.1712 93.3011 81.5524 93.6508 82.9102C94.1171 84.7373 94.7866 86.5112 95.2262 88.3449C95.6659 90.1787 95.8824 92.1289 95.4194 93.9593Z" fill="black"/>
<path opacity="0.1" d="M105.325 53.3706C103.759 53.8678 102.064 53.769 100.566 53.0933C99.0685 52.4176 97.8736 51.2127 97.2113 49.7101C97.2373 49.3982 97.2817 49.0882 97.3445 48.7816C97.6776 47.2508 99.1031 47.8099 100.229 48.2159C101.584 48.6557 102.894 49.2229 104.142 49.9097C104.523 50.1055 104.853 50.3855 105.108 50.7284C105.601 51.4638 105.405 52.4422 105.325 53.3706Z" fill="black"/>
<path d="M103.313 53.3506C106.992 53.3506 109.974 50.3707 109.974 46.6948C109.974 43.0189 106.992 40.0391 103.313 40.0391C99.6341 40.0391 96.6517 43.0189 96.6517 46.6948C96.6517 50.3707 99.6341 53.3506 103.313 53.3506Z" fill="#FFB9B9"/>
<path opacity="0.1" d="M121.389 96.4354C121.389 96.9878 120.639 97.1642 120.083 97.1343C118.085 97.0178 116.13 96.4686 114.151 96.6351C111.65 96.8614 109.352 98.2425 106.844 98.369C105.878 98.4189 104.895 98.2758 103.943 98.4522C102.71 98.6818 101.611 99.4307 100.355 99.5372C99.2664 99.6304 98.1906 99.221 97.1015 99.2643C96.34 99.3096 95.5976 99.5209 94.9265 99.8833C94.9994 99.1786 95.3149 98.521 95.8191 98.0229C96.6152 97.2408 97.7476 97.4438 98.8467 97.2574C99.9431 97.0209 101.014 96.6788 102.044 96.2357C104.934 95.0978 107.977 94.3946 111.074 94.1489C114.184 93.9018 117.308 94.3957 120.19 95.59C120.609 95.7597 121.004 95.9835 121.365 96.2556C121.384 96.3137 121.391 96.3746 121.389 96.4354Z" fill="black"/>
<path d="M100.232 58.8483L97.5344 57.8499L96.3953 57.4306C95.9311 57.2362 95.4425 57.1063 94.9431 57.0445C93.6375 56.9447 92.4085 57.8133 91.7124 58.9215C91.0163 60.0298 90.7531 61.351 90.53 62.6389C90.2236 64.4006 89.9638 66.1689 89.7506 67.9438C89.5211 69.5467 89.4042 71.1636 89.4009 72.7828C89.4775 76.9029 90.3501 80.9664 91.3094 84.9767C91.7792 86.7547 92.1341 88.5611 92.3718 90.3847C92.4518 91.1369 92.4884 91.8923 92.5683 92.6478C92.6549 93.4964 92.7948 94.3351 92.9347 95.1771L93.7374 99.9595C94.7366 99.2506 95.8724 98.6283 97.1014 98.5916C98.1905 98.5517 99.2696 98.9577 100.355 98.8645C101.604 98.7614 102.71 98.0126 103.943 97.7829C104.895 97.6066 105.878 97.7463 106.847 97.6997C109.352 97.5733 111.653 96.1888 114.151 95.9658C116.133 95.7861 118.101 96.3452 120.086 96.4617C120.639 96.495 121.389 96.3186 121.389 95.7628C121.389 95.3768 121.002 95.1205 120.666 94.9275C119.08 93.9735 117.571 92.8975 116.153 91.7093C114.841 90.6709 113.508 89.606 112.606 88.2015C110.431 84.8236 111.177 80.2542 109.322 76.6899C107.813 73.7945 109.322 70.0005 109.322 66.7358C109.322 65.1083 109.322 63.461 108.939 61.8802C108.699 60.996 108.401 60.1288 108.046 59.2843L106.75 56.0062C106.723 55.9104 106.67 55.824 106.597 55.7566C106.51 55.6966 106.406 55.6652 106.301 55.6667C105.523 55.6201 104.755 55.8658 104.149 56.3556C103.54 56.8515 103.15 57.5637 102.55 58.0796C101.894 58.6486 101.048 59.1479 100.232 58.8483Z" fill="#E3E8F4"/>
<path d="M104.585 56.9578C104.799 56.0459 105.028 55.0974 105.638 54.3852C106.247 53.673 107.36 53.297 108.146 53.8062C109.039 54.3852 109.075 55.7231 109.838 56.4686C110.504 57.1076 111.503 57.1575 112.409 57.2407C114.038 57.3888 115.638 57.7653 117.162 58.3589C117.459 58.451 117.73 58.613 117.951 58.8315C118.368 59.3041 118.284 60.0296 118.491 60.6186C118.774 61.3774 119.557 61.86 119.86 62.6155C120.193 63.4541 119.86 64.3926 119.58 65.2546C119.077 66.8021 118.761 68.4096 118.271 69.9637C117.782 71.5179 117.085 73.0488 115.94 74.2203C115.433 74.7395 114.681 75.2187 114.015 74.9092L113.758 76.7563C113.683 77.1465 113.683 77.5474 113.758 77.9377C113.797 78.133 113.89 78.3134 114.027 78.4582C114.163 78.603 114.338 78.7064 114.531 78.7564C114.581 79.0426 114.884 79.1791 115.13 79.3355C115.312 79.4598 115.468 79.619 115.588 79.8038C115.708 79.9886 115.79 80.1953 115.829 80.412C115.868 80.6287 115.864 80.8511 115.817 81.0662C115.77 81.2813 115.68 81.4849 115.553 81.6651C115.344 81.948 115.034 82.171 114.934 82.5071C114.784 82.993 115.14 83.5055 115.573 83.7718C116.006 84.038 116.516 84.1611 116.956 84.4174C117.868 84.9432 118.358 85.9782 118.671 86.9833C118.904 87.7421 119.097 88.5641 119.67 89.1166C119.89 89.3262 120.153 89.486 120.363 89.7056C120.726 90.1344 120.936 90.6719 120.959 91.2332C121.05 91.9288 120.897 92.6345 120.526 93.23C119.86 94.1818 118.618 94.4647 117.528 94.894C115.76 95.6196 114.304 96.9175 112.746 98.0224C112.111 98.5333 111.363 98.8848 110.564 99.0474C109.485 99.1905 108.422 98.7146 107.337 98.6714C106.687 98.6774 106.041 98.7623 105.411 98.9243L103.413 99.3569C103.52 97.8094 102.667 96.2585 102.191 94.7842C101.291 92.0086 101.125 89.04 101.338 86.1313C101.551 83.2226 102.144 80.3539 102.73 77.4984C103.14 75.5016 103.1 73.4149 103.729 71.4747C104.319 69.6077 105.162 67.8138 105.471 65.8703C105.978 62.7253 103.873 60.0595 104.585 56.9578Z" fill="#3F3D56"/>
<path d="M119.737 63.1122C119.92 63.4504 120.05 63.8154 120.12 64.1938C120.274 64.78 120.562 65.3224 120.962 65.7779C121.297 66.0733 121.595 66.4086 121.848 66.7763C122.155 67.3554 122.038 68.0609 122.181 68.6933C122.348 69.3822 122.831 69.9812 122.901 70.6901C122.903 70.8932 122.922 71.0958 122.957 71.2958C123.174 72.1012 124.36 72.2942 124.623 73.0996C124.799 73.6221 124.496 74.1912 124.553 74.7403C124.594 74.9101 124.604 75.086 124.583 75.2595C124.507 75.4556 124.375 75.6248 124.203 75.7453C123.101 76.7976 122.338 78.1545 122.012 79.6425C121.691 81.1223 121.522 82.6311 121.509 84.1453L120.206 82.4247C120.068 82.2159 119.892 82.0352 119.687 81.8922C119.52 81.7924 119.327 81.7424 119.157 81.6426C118.664 81.363 118.471 80.7707 118.281 80.2382C117.754 78.7642 116.964 77.3977 115.95 76.2046C115.42 75.5823 114.804 74.9566 114.687 74.1479C114.652 73.7765 114.673 73.4019 114.747 73.0363C115.08 70.8565 115.437 68.6234 116.499 66.6898C116.996 65.7846 117.638 64.9659 118.115 64.0474C118.434 63.4383 118.884 61.8542 119.737 63.1122Z" fill="#3F3D56"/>
<path d="M86.8797 65.2051C86.8858 65.4853 86.8143 65.7617 86.6731 66.0038C86.5458 66.1512 86.3799 66.2604 86.1941 66.3192C86.0082 66.3779 85.8097 66.384 85.6207 66.3366C85.2414 66.2415 84.8841 66.0743 84.5682 65.8441C83.64 65.2583 82.7119 64.6715 81.7837 64.0835C81.2655 63.7715 80.7662 63.4292 80.2882 63.0585C79.5577 62.4423 78.8955 61.7494 78.3132 60.9918C76.6945 58.995 75.2623 56.8284 73.4604 55.0013C72.9708 54.5021 72.4612 54.0229 71.9882 53.5004C71.3418 52.7451 70.7475 51.9468 70.2096 51.1109C69.69 50.3421 69.1505 49.4901 69.2404 48.5716C69.2937 48.0524 69.5435 47.5732 69.6168 47.0573C69.69 46.5415 69.4935 45.9125 68.9939 45.7727C68.9349 45.7579 68.8747 45.7478 68.8141 45.7427C68.7155 45.7323 68.6183 45.7111 68.5243 45.6795C68.0613 45.4865 68.1313 44.771 68.4643 44.3949C68.7974 44.0188 69.2904 43.8092 69.5935 43.3965C69.7344 43.1516 69.8925 42.917 70.0664 42.6943C70.2894 42.5032 70.5559 42.3695 70.8425 42.3049C72.7637 41.7392 74.796 41.6625 76.7544 42.0819C77.0875 42.1551 77.4672 42.2882 77.5671 42.6111C77.607 42.7683 77.607 42.933 77.5671 43.0903C77.4202 43.7465 77.3355 44.415 77.314 45.0871C77.3134 45.2272 77.3212 45.3673 77.3373 45.5064C77.4938 46.9175 78.4098 48.1123 79.3024 49.2139C80.3615 50.5251 81.4373 51.8264 82.5165 53.1243C83.1001 53.8765 83.7524 54.5728 84.4649 55.2043C85.1311 55.7568 85.9937 56.2027 86.5133 56.9116C86.9363 57.484 86.7997 58.2661 86.8463 58.955C87.0013 61.0351 87.0124 63.1234 86.8797 65.2051Z" fill="#3F3D56"/>
<path d="M129.179 79.089C129.508 78.7695 129.805 78.4183 130.065 78.0407C130.345 77.5728 130.569 77.0735 130.731 76.5531L132.663 71.0785C132.969 70.2132 133.276 69.3446 133.662 68.5026C134.062 67.5941 134.535 66.7188 134.971 65.8402C136.093 63.5281 136.961 61.1011 137.559 58.6018C137.664 58.2584 137.699 57.8974 137.662 57.5402C137.569 56.9644 137.133 56.5151 136.716 56.1058C136.298 55.6539 135.821 55.26 135.298 54.9343C135.035 54.7711 134.742 54.6618 134.437 54.6126C134.132 54.5635 133.82 54.5756 133.519 54.6481C132.666 54.8977 132.13 55.7697 131.934 56.6449C131.737 57.5202 131.81 58.4154 131.727 59.3073C131.607 60.5853 131.168 61.82 131.061 63.1013C131.004 63.8434 131.061 64.5922 130.971 65.331C130.807 66.3012 130.469 67.2337 129.972 68.0833C128.89 70.1071 127.428 71.9036 125.665 73.3748C125.183 73.7309 124.748 74.1482 124.373 74.6162C124.06 75.0843 123.848 75.6124 123.75 76.167C123.529 77.0115 123.625 77.9077 124.02 78.6863C124.563 79.6115 125.605 80.0175 126.601 80.2239C127.947 80.5034 128.257 80.0442 129.179 79.089Z" fill="#FFB9B9"/>
<path d="M103.353 37.05C103.64 36.5116 104.079 36.0696 104.616 35.779C105.152 35.4884 105.763 35.3621 106.371 35.416C106.983 35.5244 107.553 35.8019 108.015 36.2171C108.478 36.6324 108.815 37.1687 108.989 37.7655C109.145 38.2614 109.208 38.8105 109.481 39.2365C109.894 39.8788 110.661 40.0651 111.233 40.531C111.575 40.8485 111.851 41.2311 112.043 41.6563C112.235 42.0814 112.34 42.5407 112.353 43.007C112.384 43.9596 112.234 44.9095 111.91 45.8058C111.772 46.1882 111.661 46.5796 111.576 46.9772C111.51 47.3633 111.503 47.756 111.443 48.142C111.369 48.6426 111.196 49.1233 110.934 49.556C110.671 49.9886 110.325 50.3644 109.914 50.6613C109.798 50.7564 109.652 50.8092 109.501 50.811C109.242 50.7811 109.082 50.4782 108.985 50.2053C108.456 48.6778 108.582 46.8108 107.606 45.5928C107.162 45.1015 106.626 44.7023 106.028 44.4181C105.784 44.2608 105.509 44.1576 105.222 44.1152C104.799 44.1379 104.393 44.2863 104.056 44.5412C103.353 45.0123 102.573 45.357 101.751 45.5596C101.341 45.6566 100.914 45.661 100.502 45.5723C100.09 45.4837 99.7033 45.3042 99.3695 45.047C98.9099 44.6677 98.5735 44.0986 98.0639 43.8024C97.5543 43.5062 97.0214 43.5229 96.5185 43.3198C96.198 43.1836 95.9128 42.9761 95.6847 42.7131C95.4566 42.4501 95.2917 42.1385 95.2023 41.8021C95.113 41.4658 95.1018 41.1134 95.1694 40.7721C95.237 40.4307 95.3818 40.1092 95.5926 39.8322C95.9256 39.4328 96.4186 39.2065 96.715 38.7639C97.098 38.1915 97.0647 37.4061 97.2479 36.7205C97.3563 36.2868 97.5667 35.8852 97.8615 35.5489C98.1563 35.2126 98.5272 34.9515 98.9432 34.787C99.3467 34.6501 99.7796 34.6239 100.197 34.7111C100.614 34.7983 101 34.9958 101.315 35.2829C101.648 35.5824 101.914 35.9684 102.241 36.2813C102.563 36.5895 102.957 36.8119 103.388 36.9282C103.819 37.0445 104.272 37.0509 104.705 36.9469" fill="#3F3D56"/>
<path opacity="0.1" d="M108.829 86.0347C108.635 86.2072 108.497 86.4341 108.434 86.6858C108.371 86.9374 108.386 87.2022 108.476 87.4456C108.549 87.602 111.986 86.9398 112.349 86.8899C113.255 86.7601 114.844 86.8234 115.453 85.9948C116.539 84.5272 113.175 84.8533 112.559 84.9066C111.387 85.0064 109.721 85.1662 108.829 86.0347Z" fill="black"/>
<path d="M77.5604 43.1037C77.4135 43.7599 77.3288 44.4285 77.3073 45.1006C76.3081 45.3036 75.2689 44.9708 74.3097 44.638L71.5552 43.6994C71.3877 43.5924 71.1856 43.5532 70.9901 43.5896C70.7946 43.6261 70.6204 43.7356 70.5027 43.8958C70.0597 44.3551 69.4502 45.2271 68.8374 45.7429C68.7388 45.7325 68.6416 45.7113 68.5476 45.6797C68.0847 45.4866 68.1546 44.7711 68.4877 44.395C68.8207 44.0189 69.3137 43.8092 69.6168 43.3965C69.7577 43.1517 69.9158 42.917 70.0897 42.6943C70.3128 42.5032 70.5792 42.3695 70.8658 42.3049C72.787 41.7392 74.8193 41.6625 76.7777 42.0819C77.1108 42.1551 77.4905 42.2883 77.5904 42.6111C77.6228 42.7751 77.6125 42.9448 77.5604 43.1037Z" fill="#3F3D56"/>
<path opacity="0.1" d="M77.5604 43.1037C77.4135 43.7599 77.3288 44.4285 77.3073 45.1006C76.3081 45.3036 75.2689 44.9708 74.3097 44.638L71.5552 43.6994C71.3877 43.5924 71.1856 43.5532 70.9901 43.5896C70.7946 43.6261 70.6204 43.7356 70.5027 43.8958C70.0597 44.3551 69.4502 45.2271 68.8374 45.7429C68.7388 45.7325 68.6416 45.7113 68.5476 45.6797C68.0847 45.4866 68.1546 44.7711 68.4877 44.395C68.8207 44.0189 69.3137 43.8092 69.6168 43.3965C69.7577 43.1517 69.9158 42.917 70.0897 42.6943C70.3128 42.5032 70.5792 42.3695 70.8658 42.3049C72.787 41.7392 74.8193 41.6625 76.7777 42.0819C77.1108 42.1551 77.4905 42.2883 77.5904 42.6111C77.6228 42.7751 77.6125 42.9448 77.5604 43.1037Z" fill="black"/>
<path opacity="0.1" d="M102.757 106.286C103.237 106.446 103.756 106.679 103.919 107.158L100.062 106.18L98.064 105.671C97.7109 105.581 96.4453 105.478 96.2121 105.202C95.8791 104.796 97.0615 105.075 97.2746 105.105C97.9208 105.202 98.5669 105.301 99.2097 105.418C100.422 105.634 101.588 105.99 102.757 106.286Z" fill="black"/>
<path opacity="0.1" d="M104.252 109.698C103.919 109.475 102.963 109.501 102.554 109.405C101.954 109.262 101.365 109.072 100.775 108.889C99.5795 108.5 98.3938 108.057 97.1647 107.771C96.9383 107.721 96.1656 107.708 96.2022 107.421C96.2388 107.135 96.9749 107.035 97.1581 107.022C98.2472 106.942 99.6061 107.451 100.619 107.814C101.909 108.276 103.131 108.91 104.252 109.698Z" fill="black"/>
<path opacity="0.1" d="M101.808 103.244C100.585 102.912 99.4762 102.153 98.2173 102.006C97.8892 102.019 97.5664 101.92 97.3013 101.727C97.1533 101.581 97.0504 101.396 97.0049 101.194C97.8475 101.151 98.8268 101.507 99.5928 101.843C100.014 102.024 100.42 102.24 100.805 102.489C101.085 102.659 101.505 103.148 101.808 103.244Z" fill="black"/>
<path d="M125.109 73.4453C124.902 74.8289 125.201 76.2405 125.951 77.4218C126.701 78.6031 127.852 79.4751 129.192 79.878C129.029 80.6667 128.213 81.1027 127.637 81.6651C126.824 82.4538 126.405 83.6352 125.445 84.2342C124.376 84.8998 123.001 84.6402 121.782 84.3607C121.671 84.3483 121.569 84.2948 121.495 84.2109C121.47 84.171 121.452 84.1271 121.442 84.0811C121.039 82.6069 120.776 81.0328 121.189 79.5552C121.522 78.2973 122.321 77.2258 122.961 76.1143C123.6 75.0028 123.66 73.8114 125.109 73.4453Z" fill="#3F3D56"/>
<path d="M95.3295 54.3625C94.0403 54.4562 92.7885 54.8372 91.6658 55.4774C90.9197 55.9034 90.1537 56.4758 89.301 56.3726C88.7981 56.316 88.3018 56.0398 87.8122 56.1729C87.5364 56.2841 87.2792 56.4368 87.0495 56.6255C86.933 56.7182 86.7944 56.7792 86.6474 56.8025C86.5003 56.8259 86.3497 56.8108 86.2102 56.7587L85.8771 61.3646C85.7505 63.1152 85.6273 64.9023 86.047 66.6096C86.2634 67.4815 86.7397 68.2736 86.793 69.1588C86.8463 70.0441 86.7664 70.9526 86.8297 71.8479C86.8896 72.6765 87.0728 73.4919 87.1194 74.3206C87.2127 75.8847 86.8263 77.4356 86.4533 78.9565C85.8904 81.1996 85.5507 83.4926 84.4549 85.5226C84.1485 86.0851 83.7887 86.6575 83.7887 87.2965C83.7887 87.3763 83.7887 87.4529 83.8087 87.5294C83.4757 87.7125 83.1659 87.8855 82.8828 88.0653C82.25 88.4746 81.5738 88.9305 81.3141 89.6394C81.1042 90.2151 81.2008 90.8741 80.9477 91.4299C80.6946 91.9856 80.115 92.3817 79.9885 92.9807C79.8985 93.4167 80.0717 93.876 79.9885 94.3119C79.913 94.5375 79.8518 94.7676 79.8053 95.0008C79.7719 95.5 80.195 95.9027 80.6146 96.1756C81.2266 96.5787 81.9022 96.8757 82.613 97.0542L84.6014 89.1668C86.4143 85.8176 87.9225 82.3124 89.1078 78.6936C89.4469 77.5107 89.8825 76.3575 90.4101 75.2458C90.7871 74.6168 91.121 73.963 91.4093 73.2889C91.7124 72.4502 91.7424 71.5417 91.8889 70.6564C92.0629 69.6232 92.3248 68.6067 92.6716 67.618C93.0314 66.5497 93.4477 65.4847 93.521 64.3632C93.6309 62.7591 93.048 61.0651 93.6675 59.5808C93.9305 59.0253 94.2727 58.5107 94.6834 58.0533C95.5427 57.0016 96.3254 55.9 97.1847 54.8484C96.7384 54.3725 95.9957 54.3226 95.3295 54.3625Z" fill="#3F3D56"/>
<g opacity="0.1">
<path opacity="0.1" d="M104.715 35.9551L104.299 35.9849L104.252 36.0181C104.408 36.0118 104.563 35.9907 104.715 35.9551Z" fill="black"/>
<path opacity="0.1" d="M112.336 42.8642C112.266 43.5259 112.123 44.1778 111.91 44.8079C111.772 45.1903 111.661 45.5817 111.577 45.9793C111.51 46.3654 111.503 46.7581 111.443 47.1442C111.369 47.6448 111.196 48.1256 110.934 48.5582C110.671 48.9909 110.325 49.3667 109.914 49.6636C109.798 49.7587 109.652 49.8115 109.501 49.8133C109.242 49.7834 109.082 49.4805 108.985 49.2076C108.456 47.68 108.582 45.8129 107.606 44.5948C107.162 44.1035 106.626 43.7043 106.028 43.42C105.784 43.2628 105.509 43.1595 105.222 43.1172C104.799 43.1399 104.393 43.2882 104.056 43.5432C103.353 44.0143 102.573 44.359 101.751 44.5616C101.341 44.6587 100.914 44.663 100.502 44.5743C100.09 44.4857 99.7033 44.3062 99.3696 44.049C98.91 43.6696 98.5735 43.1005 98.064 42.8043C97.5544 42.5081 97.0215 42.5248 96.5185 42.3217C96.2044 42.1877 95.9245 41.9846 95.6996 41.7276C95.4747 41.4707 95.3106 41.1664 95.2196 40.8374C95.2078 40.7959 95.1989 40.7536 95.1929 40.7109C95.1097 41.0824 95.1188 41.4687 95.2196 41.8358C95.3106 42.1648 95.4747 42.4691 95.6996 42.7261C95.9245 42.983 96.2044 43.1861 96.5185 43.3202C97.0215 43.5232 97.5877 43.5265 98.064 43.8028C98.5402 44.079 98.91 44.6681 99.3696 45.0475C99.7033 45.3046 100.09 45.4841 100.502 45.5728C100.914 45.6614 101.341 45.6571 101.751 45.56C102.573 45.3574 103.353 45.0128 104.056 44.5416C104.393 44.2867 104.799 44.1383 105.222 44.1156C105.509 44.1579 105.784 44.2612 106.028 44.4185C106.618 44.7083 107.147 45.1107 107.583 45.6033C108.559 46.8214 108.432 48.6884 108.962 50.216C109.059 50.4923 109.218 50.7918 109.478 50.8218C109.638 50.8226 109.793 50.7659 109.914 50.662C110.326 50.3643 110.674 49.9871 110.937 49.5526C111.2 49.1181 111.374 48.6353 111.447 48.1326C111.507 47.7466 111.513 47.3539 111.58 46.9678C111.664 46.5702 111.775 46.1787 111.913 45.7963C112.237 44.9 112.388 43.95 112.356 42.9974C112.349 42.9574 112.343 42.9108 112.336 42.8642Z" fill="black"/>
</g>
<path d="M70.7092 0.0364862C70.7092 0.0364862 42.6682 -1.65416 45.9656 17.9813C45.9656 17.9813 45.2995 21.4524 48.457 23.0266C48.457 23.0266 48.5069 21.5723 51.3347 22.0681C52.3414 22.2349 53.3642 22.284 54.3823 22.2146C55.7577 22.1197 57.0647 21.58 58.106 20.677C58.106 20.677 65.9897 17.4222 69.0539 4.54932C69.0539 4.54932 71.3221 1.74045 71.2322 1.01826L66.4993 3.03838C66.4993 3.03838 68.118 6.44963 66.8323 9.28512C66.8323 9.28512 66.6791 3.16152 65.7699 3.29464C65.5867 3.32459 63.3118 4.4761 63.3118 4.4761C63.3118 4.4761 66.0929 10.4167 63.9946 14.7365C63.9946 14.7365 64.7906 7.41476 62.4425 4.90541L59.1118 6.84899C59.1118 6.84899 62.3626 12.9859 60.1576 17.9946C60.1576 17.9946 60.7239 10.3135 58.409 7.32158L55.3914 9.6745C55.3914 9.6745 58.4457 15.7249 56.5838 19.8783C56.5838 19.8783 56.3407 10.9358 54.7386 10.2602C54.7386 10.2602 52.0974 12.5899 51.6944 13.5417C51.6944 13.5417 53.7861 17.9347 52.4871 20.251C52.4871 20.251 51.6911 14.2938 51.0382 14.2605C51.0382 14.2605 48.407 18.2076 48.1339 20.9166C48.1339 20.9166 48.2471 16.893 50.4021 13.8878C50.4021 13.8878 47.8574 14.3238 46.372 15.9712C46.372 15.9712 46.7816 13.1823 51.0516 12.9393C51.0516 12.9393 53.2265 9.94408 53.806 9.76103C53.806 9.76103 49.5628 9.40826 46.9881 10.5464C46.9881 10.5464 49.253 7.91396 54.5854 9.11206L57.5664 6.67926C57.5664 6.67926 51.9775 5.91714 49.6061 6.75914C49.6061 6.75914 52.3339 4.4295 58.3691 6.1268L61.6132 4.18989C61.6132 4.18989 56.847 3.16485 54.0092 3.52428C54.0092 3.52428 57.0068 1.91018 62.5657 3.66073L64.8972 2.61905C64.8972 2.61905 61.4067 1.93347 60.3841 1.82365C59.3616 1.71382 59.3083 1.43427 59.3083 1.43427C61.5197 1.0658 63.7901 1.31812 65.8664 2.16311C65.8664 2.16311 70.7958 0.345994 70.7092 0.0364862Z" fill="#03A803"/>
<path d="M36.1236 5.0322C36.1236 5.0322 23.467 4.26677 24.9491 13.1391C24.9491 13.1391 24.6527 14.7099 26.0716 15.4221C26.0716 15.4221 26.0949 14.7565 27.3739 14.9862C27.8281 15.0625 28.2899 15.0849 28.7494 15.0527C29.371 15.0105 29.9618 14.7662 30.4314 14.3572C30.4314 14.3572 33.9952 12.8895 35.3808 7.07225C35.3808 7.07225 36.4033 5.80096 36.3634 5.47482L34.2251 6.38668C34.2251 6.38668 34.9578 7.93086 34.3816 9.21213C34.3816 9.21213 34.3117 6.44326 33.902 6.50982C33.8187 6.50982 32.7895 7.04229 32.7895 7.04229C32.7895 7.04229 34.0485 9.72796 33.0993 11.6815C33.0993 11.6815 33.459 8.37348 32.3965 7.23864L30.8911 8.11723C30.8911 8.11723 32.3632 10.8894 31.364 13.1524C31.364 13.1524 31.6205 9.68137 30.5746 8.33022L29.2124 9.40515C29.2124 9.40515 30.5913 12.1407 29.752 14.0144C29.752 14.0144 29.6421 9.97423 28.916 9.67139C28.916 9.67139 27.7236 10.723 27.5404 11.1557C27.5404 11.1557 28.4863 13.1524 27.9001 14.1841C27.9001 14.1841 27.5404 11.4918 27.234 11.4818C27.234 11.4818 26.0483 13.2656 25.9217 14.477C25.9811 13.3464 26.3347 12.2509 26.9475 11.2988C26.2614 11.4286 25.6281 11.756 25.1257 12.2406C25.1257 12.2406 25.3122 10.9826 27.2406 10.8695C27.2406 10.8695 28.2398 9.5183 28.4863 9.4351C28.4863 9.4351 26.5678 9.27536 25.4054 9.7912C25.4054 9.7912 26.428 8.59978 28.8394 9.1256L30.1716 8.02737C30.1716 8.02737 27.647 7.69457 26.5745 8.06398C26.5745 8.06398 27.8068 7.01234 30.5347 7.77777L32.0002 6.90252C32.0002 6.90252 29.8486 6.4366 28.5629 6.60633C28.5629 6.60633 29.9185 5.87418 32.4298 6.66623L33.479 6.19699C33.479 6.19699 31.9003 5.88416 31.4373 5.83757C30.9743 5.79098 30.951 5.66119 30.951 5.66119C31.9509 5.49499 32.9773 5.61023 33.9153 5.99398C33.9153 5.99398 36.1635 5.17197 36.1236 5.0322Z" fill="#03A803"/>
<path d="M67.0121 136.637C74.4087 136.637 80.4048 135.624 80.4048 134.374C80.4048 133.125 74.4087 132.111 67.0121 132.111C59.6156 132.111 53.6195 133.125 53.6195 134.374C53.6195 135.624 59.6156 136.637 67.0121 136.637Z" fill="#03A803"/>
<path d="M72.5511 130.674C73.1626 130.177 73.6076 129.504 73.8268 128.747C73.9933 127.985 73.6669 127.083 72.9341 126.787C72.1148 126.474 71.2388 127.043 70.576 127.616C69.9132 128.188 69.1505 128.844 68.2845 128.721C68.7308 128.316 69.0646 127.802 69.2537 127.23C69.4428 126.658 69.4807 126.047 69.3636 125.456C69.3257 125.211 69.2221 124.981 69.0639 124.79C68.6076 124.304 67.7849 124.51 67.2387 124.893C65.5067 126.111 65.0238 128.464 65.0138 130.578C64.8406 129.816 64.9871 129.02 64.9838 128.248C64.9804 127.476 64.764 126.584 64.1012 126.175C63.6924 125.955 63.2328 125.847 62.7689 125.862C61.9928 125.832 61.1235 125.912 60.5939 126.481C59.9278 127.186 60.1043 128.371 60.6772 129.143C61.2501 129.915 62.1261 130.411 62.9321 130.947C63.5769 131.331 64.1267 131.856 64.5408 132.482C64.5907 132.569 64.6309 132.662 64.6607 132.758H69.5435C70.6355 132.202 71.6472 131.501 72.5511 130.674Z" fill="#03A803"/>
<path d="M67.1445 87.2935L67.023 88.9237C67.0051 89.1451 66.5816 94.4162 63.4579 100.576C60.7774 105.86 55.5612 112.742 45.7131 116.609C44.9447 116.913 44.1471 117.196 43.3203 117.459L42.3982 114.567C44.7131 113.839 46.943 112.864 49.0494 111.66C54.069 108.763 57.9718 104.63 60.6934 99.3105C62.1374 96.4784 63.1665 93.4536 63.7492 90.329H52.5447V87.2935H67.1445Z" fill="#03A803"/>
<path opacity="0.1" d="M44.5068 116.611C54.3532 112.743 59.5712 105.863 62.2499 100.58C65.3736 94.4196 65.7989 89.1521 65.815 88.9271L65.9365 87.2969H67.1874L67.0659 88.9271C67.0498 89.1485 66.6245 94.4196 63.5008 100.58C60.8203 105.863 55.6041 112.743 45.7577 116.611C44.9893 116.914 44.1911 117.198 43.3632 117.463L43.2416 117.082C43.6729 116.929 44.0946 116.772 44.5068 116.611Z" fill="white"/>
<path d="M24.7927 114.567L23.8706 117.459C23.0426 117.195 22.2444 116.911 21.476 116.607C11.6297 112.74 6.41171 105.86 3.73301 100.576C0.609351 94.4162 0.18405 89.1487 0.167967 88.9237L0.0464478 87.2935H14.639V90.329H3.4328C4.01857 93.454 5.05068 96.4788 6.49748 99.3105C9.21907 104.63 13.1201 108.763 18.1397 111.658C20.2463 112.864 22.4769 113.839 24.7927 114.567Z" fill="#03A803"/>
<path opacity="0.1" d="M22.6805 116.611C12.8342 112.743 7.61618 105.863 4.93747 100.58C1.8138 94.4196 1.38849 89.1521 1.37241 88.9271L1.2509 87.2969H0L0.121514 88.9271C0.137597 89.1485 0.562905 94.4196 3.68657 100.58C6.36707 105.863 11.5833 112.743 21.4296 116.611C22.1981 116.914 22.9963 117.198 23.8242 117.463L23.9457 117.082C23.5157 116.929 23.0939 116.772 22.6805 116.611Z" fill="white"/>
<path d="M50.4522 142.528V158.896H16.7369V142.528L17.8091 141.099C28.7348 137.225 30.9489 127.12 31.3903 123.122C31.456 122.57 31.4936 122.014 31.5029 121.458H35.6719C35.6813 122.014 35.7188 122.57 35.7845 123.122C36.2331 127.12 38.4471 137.228 49.3657 141.099L50.4522 142.528Z" fill="#03A803"/>
<path opacity="0.1" d="M50.4522 142.527H16.7369V144.581H50.4522V142.527Z" fill="black"/>
<path opacity="0.1" d="M19.5961 141.099C30.5218 137.225 32.7359 127.12 33.1773 123.122C33.243 122.57 33.2805 122.014 33.2899 121.458H31.5029C31.4935 122.014 31.456 122.57 31.3903 123.122C30.9417 127.12 28.7277 137.228 17.8091 141.099L16.7369 142.528V158.896H18.5239V142.528L19.5961 141.099Z" fill="white"/>
<path opacity="0.1" d="M11.6155 87.2935H14.639V90.3286H11.8835C11.7751 89.3288 11.6858 88.3171 11.6155 87.2935Z" fill="black"/>
<path opacity="0.1" d="M24.7927 114.566L23.8706 117.459C23.0427 117.194 22.2445 116.911 21.4761 116.607C20.212 115.065 19.0951 113.407 18.1398 111.657C20.2463 112.863 22.4769 113.838 24.7927 114.566Z" fill="black"/>
<path opacity="0.1" d="M42.3964 114.566C44.7113 113.838 46.9412 112.864 49.0476 111.659C48.0917 113.41 46.9748 115.067 45.7113 116.611C44.9428 116.914 44.1452 117.197 43.3185 117.46L42.3964 114.566Z" fill="black"/>
<path opacity="0.1" d="M35.7916 123.122C34.3404 123.403 32.8487 123.403 31.3975 123.122C31.4631 122.57 31.5007 122.014 31.51 121.458H35.679C35.6884 122.014 35.7259 122.57 35.7916 123.122Z" fill="black"/>
<path d="M11.9729 82.2646C12.0497 104.774 21.6995 122.976 33.5955 122.976C45.4915 122.976 55.1395 104.774 55.2181 82.2646H11.9729Z" fill="#03A803"/>
<path opacity="0.1" d="M15.8149 82.2646H11.9729C12.0497 104.774 21.6995 122.976 33.5955 122.976C34.2392 122.975 34.8817 122.92 35.5165 122.813C24.5194 120.978 15.8882 103.549 15.8149 82.2646Z" fill="white"/>
<path d="M45.0608 148.794H22.1283V154.686H45.0608V148.794Z" fill="#3F3D56"/>
<path opacity="0.1" d="M23.2005 149.597H45.0608V148.794H22.1283V154.686H23.2005V149.597Z" fill="white"/>
<defs>
<linearGradient id="paint0_linear" x1="111.083" y1="154.719" x2="111.083" y2="20.8325" gradientUnits="userSpaceOnUse">
<stop stop-color="#808080" stop-opacity="0.25"/>
<stop offset="0.54" stop-color="#808080" stop-opacity="0.12"/>
<stop offset="1" stop-color="#808080" stop-opacity="0.1"/>
</linearGradient>
</defs>
</svg>
