<svg width="156" height="172" viewBox="0 0 156 172" fill="none" xmlns="http://www.w3.org/2000/svg">
<path d="M21.2647 124.144L18.0387 118.971C19.081 116.284 20.2752 113.657 21.6156 111.104L23.7336 112.872L22.0819 110.224C23.7709 107.083 25.0898 105.109 25.0898 105.109C25.0898 105.109 31.5555 115.684 33.5622 126.785L29.1567 133.252L33.9636 129.556C34.1059 130.847 34.1663 132.146 34.1443 133.444C33.8787 146.538 29.354 157.067 24.0381 156.961C18.7221 156.855 14.628 146.154 14.8936 133.06C14.976 129.001 15.9875 124.772 17.3438 120.869L21.2647 124.144Z" fill="#03A803"/>
<path d="M6.66716 129.919L1.21112 127.145C0.703769 124.31 0.35795 121.45 0.175303 118.576L2.90967 119.004L0.116161 117.584C-0.0741416 114.028 0.0266905 111.662 0.0266905 111.662C0.0266905 111.662 11.0703 117.399 18.5702 125.872L18.1676 133.668L20.357 128.038C21.1514 129.07 21.8797 130.151 22.5374 131.274C29.1304 142.619 30.7413 153.953 26.1354 156.589C21.5294 159.225 12.4508 152.165 5.85767 140.819C3.81374 137.302 2.47717 133.164 1.60516 129.127L6.66716 129.919Z" fill="#29BB29"/>
<path d="M34.0627 171.791C27.776 172.19 20.9259 171.768 13.6385 171.791V155.235C20.0599 156.227 26.9077 156.125 34.0627 155.235V171.791Z" fill="#3F3D56"/>
<path d="M156 96.0617L89.281 106.722L88.9982 42.3569L155.717 -0.000488281L156 96.0617Z" fill="#E6E6E6"/>
<path d="M149.78 86.5235L92.1079 98.8672V45.0032L149.78 13.9409V86.5235Z" fill="white"/>
<path d="M144.126 37.1477L95.5005 58.7561V51.1745L144.126 27.3369V37.1477Z" fill="#3F3D56"/>
<path d="M144.126 57.3475L95.5005 74.3666V66.8859L144.126 47.667V57.3475Z" fill="#03A803"/>
<path d="M114.287 47.9746C114.297 47.9363 114.319 47.9021 114.349 47.8773C114.38 47.8525 114.419 47.8383 114.458 47.837C114.498 47.8357 114.537 47.8473 114.569 47.8701C114.602 47.8929 114.626 47.9255 114.638 47.9631L115.425 50.4254L116.368 53.3752C116.382 53.4183 116.379 53.465 116.36 53.506C116.341 53.547 116.307 53.5794 116.265 53.5968L114.442 54.3505L112.84 55.0129C112.809 55.0258 112.775 55.0299 112.742 55.0246C112.708 55.0194 112.677 55.0051 112.652 54.9833C112.626 54.9615 112.607 54.9331 112.597 54.9012C112.586 54.8694 112.585 54.8353 112.593 54.8028L113.469 51.2713L114.287 47.9746Z" fill="#E6E6E6"/>
<path d="M111.363 66.3335C111.378 66.2704 111.414 66.214 111.465 66.173C111.516 66.1321 111.579 66.1087 111.645 66.1066C111.71 66.1045 111.775 66.1236 111.828 66.1612C111.882 66.1987 111.921 66.2526 111.941 66.3146L112.601 68.3787L113.512 71.226C113.534 71.2971 113.529 71.3742 113.498 71.4419C113.466 71.5096 113.41 71.563 113.341 71.5918L111.618 72.304L110.233 72.8768C110.182 72.8981 110.125 72.9047 110.07 72.8961C110.015 72.8875 109.964 72.8639 109.922 72.8279C109.879 72.792 109.848 72.7451 109.831 72.6925C109.814 72.6399 109.812 72.5836 109.825 72.53L110.645 69.2247L111.363 66.3335Z" fill="#E6E6E6"/>
<path d="M144.126 77.5464L95.5005 89.9761V82.0348L144.126 67.2705V77.5464Z" fill="#F2F2F2"/>
<path d="M142.995 42.606C142.995 44.2956 142.233 45.9755 141.299 46.3552C140.374 46.7315 139.63 45.6862 139.63 44.0233C139.63 42.3605 140.374 40.6884 141.299 40.2854C142.233 39.8789 142.995 40.9164 142.995 42.606Z" fill="#3F3D56"/>
<path d="M141.865 43.0824C141.865 43.6455 141.611 44.2075 141.299 44.3373C140.988 44.4667 140.737 44.1174 140.737 43.5573C140.737 42.9972 140.988 42.4361 141.299 42.3036C141.611 42.1708 141.865 42.5193 141.865 43.0824Z" fill="white"/>
<path d="M142.995 62.2432C142.995 63.9328 142.233 65.6127 141.299 65.9924C140.374 66.3687 139.63 65.3234 139.63 63.6605C139.63 61.9977 140.374 60.3256 141.299 59.9227C142.233 59.5161 142.995 60.5536 142.995 62.2432Z" fill="#03A803"/>
<path d="M141.865 62.7198C141.865 63.2829 141.611 63.845 141.299 63.9749C140.988 64.1043 140.737 63.7549 140.737 63.1947C140.737 62.6345 140.988 62.0733 141.299 61.9408C141.611 61.808 141.865 62.1566 141.865 62.7198Z" fill="white"/>
<path d="M142.995 81.8814C142.995 83.571 142.233 85.2509 141.299 85.6306C140.374 86.0069 139.63 84.9616 139.63 83.2987C139.63 81.6359 140.374 79.9638 141.299 79.5608C142.233 79.1543 142.995 80.1918 142.995 81.8814Z" fill="#F2F2F2"/>
<path d="M141.865 82.3571C141.865 82.9204 141.611 83.4826 141.299 83.6125C140.988 83.7419 140.737 83.3924 140.737 82.8321C140.737 82.2718 140.988 81.7105 141.299 81.578C141.611 81.4452 141.865 81.7938 141.865 82.3571Z" fill="white"/>
<path d="M115.883 82.606C115.898 82.5428 115.934 82.4865 115.985 82.4455C116.036 82.4045 116.099 82.3812 116.165 82.3791C116.23 82.3769 116.295 82.3961 116.348 82.4336C116.402 82.4712 116.442 82.5251 116.461 82.5871L117.121 84.6511L118.032 87.4983C118.054 87.5694 118.049 87.6464 118.018 87.7141C117.986 87.7818 117.93 87.8353 117.861 87.864L116.138 88.5763L114.753 89.149C114.702 89.1703 114.645 89.177 114.59 89.1683C114.535 89.1597 114.484 89.1361 114.442 89.1001C114.399 89.0642 114.368 89.0173 114.351 88.9647C114.334 88.9121 114.332 88.8559 114.345 88.8022L115.165 85.497L115.883 82.606Z" fill="#E6E6E6"/>
<path d="M104.406 79.1542L107.036 76.7465C107.036 76.7465 112.99 72.6768 110.911 70.4395C108.831 68.2022 104.639 73.4194 104.639 73.4194L102.038 75.1103L104.406 79.1542Z" fill="#FFB9B9"/>
<path d="M69.6279 80.2745L68.0956 82.3673C68.0956 82.3673 65.9543 90.5389 76.7905 90.9728C76.7905 90.9728 90.6298 97.6303 94.0556 93.4593C97.4813 89.2883 106.934 79.2554 106.934 79.2554L101.374 73.6475L90.0418 85.4002L79.0484 79.9338C79.0484 79.9338 73.3858 76.8349 69.6279 80.2745Z" fill="#2F2E41"/>
<path d="M62.4164 119.052L48.0688 171.508L49.8763 171.867L64.9468 119.052H62.4164Z" fill="#603C28"/>
<path d="M79.8101 119.052L94.1573 171.508L92.3499 171.867L77.2795 119.052H79.8101Z" fill="#E6E6E6"/>
<path d="M70.0077 117.976L72.4138 171.596L74.5032 171.688L71.8154 117.259L70.0077 117.976Z" fill="#603C28"/>
<path d="M76.6957 117.128C76.6957 118.488 72.9439 119.948 68.0196 120.417C62.7345 120.921 58.1571 120.103 58.1571 118.557C58.1571 117.011 62.7345 115.488 68.0196 115.176C72.9439 114.886 76.6957 115.768 76.6957 117.128Z" fill="#603C28"/>
<path d="M81.9374 107.932L85.5524 110.443C85.5524 110.443 101.097 121.563 99.6509 125.868C98.2049 130.173 90.2519 147.392 90.2519 147.392L80.1299 144.164L91.6979 125.868L85.5524 120.129L82.2989 112.236L81.9374 107.932Z" fill="#2F2E41"/>
<path d="M67.8389 101.475C67.8389 101.475 60.6089 112.595 64.9469 115.824C69.2849 119.053 81.576 131.608 81.576 131.608L84.1065 137.348L93.144 166.405L104.351 160.665L94.2285 138.065C94.2285 138.065 93.144 129.814 89.529 125.151C85.914 120.487 84.468 113.672 84.468 113.672L85.5525 110.443L79.0797 100.166L67.8389 101.475Z" fill="#2F2E41"/>
<path d="M87.4982 145.336L81.0007 143.374C81.0007 143.374 73.9843 143.087 74.3458 145.598C74.7073 148.11 80.4913 164.611 82.2988 163.535C84.1063 162.459 82.6603 157.436 82.6603 157.436L87.4982 145.336Z" fill="#2F2E41"/>
<path d="M73.0805 66.4985L69.4656 70.4445L75.2495 79.7715L77.7802 72.5969L73.0805 66.4985Z" fill="#FFB9B9"/>
<path d="M76.5148 80.309L70.0941 69.7578L67.8389 70.2645V73.8519L67.1158 103.985L79.0453 102.192C79.0453 102.192 79.7683 82.8202 76.5148 80.309Z" fill="#03A803"/>
<path d="M73.2615 79.9509L67.839 70.2651L63.1394 72.4175L54.8248 106.138L49.7638 115.824C49.7638 115.824 66.3929 124.075 70.3695 115.824C74.346 107.573 74.7075 89.2779 74.7075 89.2779L73.2615 79.9509Z" fill="#2F2E41"/>
<path d="M65.3083 73.8517L63.1393 72.4168C63.1393 72.4168 54.8248 70.6231 54.8248 81.3851C54.8248 81.3851 48.6793 95.3757 53.0173 98.6043C57.3553 101.833 67.8388 110.801 67.8388 110.801L73.2614 105.062L60.9703 94.2995L66.0313 83.1788C66.0313 83.1788 68.9233 77.4391 65.3083 73.8517Z" fill="#2F2E41"/>
<path d="M67.8389 108.29L70.3693 110.801C70.3693 110.801 74.7073 116.54 76.8763 114.388C79.0453 112.236 73.6228 108.29 73.6228 108.29L71.8153 105.779L67.8389 108.29Z" fill="#FFB9B9"/>
<path d="M76.0958 77.0542L82.299 92.1479C82.299 92.1479 84.8295 99.6813 84.8295 102.551V110.443L77.961 101.475C77.961 101.475 74.2307 78.1035 76.0958 77.0542Z" fill="#2F2E41"/>
<path d="M95.8461 163.544C95.8461 163.544 94.0553 170.541 96.4057 171.133C98.7561 171.726 118.477 172.227 118.489 168.919C118.502 165.612 105.69 162.88 105.69 162.88L100.957 159.866L95.8461 163.544Z" fill="#2F2E41"/>
<path d="M77.5994 73.1343C81.1931 73.1343 84.1064 70.2434 84.1064 66.6772C84.1064 63.1111 81.1931 60.2202 77.5994 60.2202C74.0056 60.2202 71.0923 63.1111 71.0923 66.6772C71.0923 70.2434 74.0056 73.1343 77.5994 73.1343Z" fill="#FFB9B9"/>
<path d="M84.538 65.5183C84.538 65.5183 85.809 60.0529 84.538 58.7916V59.6324C84.538 59.6324 83.6907 56.6895 81.996 57.5303C81.996 57.5303 79.8776 55.8486 79.4539 56.6895C76.9611 54.453 65.9074 56.5497 71.2732 68.292C71.2732 68.292 72.2515 64.6775 72.2515 65.9388C72.2515 65.9388 74.7936 63.4162 75.2172 62.5754C75.6409 61.7345 82.8433 67.2 84.538 65.5183Z" fill="#2F2E41"/>
</svg>
