<svg width="19" height="14" viewBox="0 0 19 14" fill="none" xmlns="http://www.w3.org/2000/svg">
<path d="M16.7641 0H1.61538C0.725773 0 0 0.724985 0 1.61538V12.3846C0 13.272 0.722542 14 1.61538 14H16.7641C17.6515 14 18.3795 13.2775 18.3795 12.3846V1.61538C18.3795 0.728 17.6569 0 16.7641 0ZM16.541 1.07692L9.22397 8.39401L1.84365 1.07692H16.541ZM1.07692 12.1616V1.83325L6.26334 6.9752L1.07692 12.1616ZM1.83841 12.9231L7.0281 7.73338L8.84655 9.53623C9.05705 9.74493 9.39675 9.74425 9.60639 9.53457L11.3795 7.76149L16.541 12.9231H1.83841ZM17.3025 12.1616L12.141 7L17.3025 1.83838V12.1616Z" fill="#03A803"/>
</svg>
