<svg width="226" height="87" viewBox="0 0 226 87" fill="none" xmlns="http://www.w3.org/2000/svg">
<g filter="url(#filter0_d)">
<g opacity="0.58" filter="url(#filter1_f)">
<path d="M30 27C30 25.8954 30.8954 25 32 25H194C195.105 25 196 25.8954 196 27V55C196 56.1046 195.105 57 194 57H32C30.8954 57 30 56.1046 30 55V27Z" fill="#03A803"/>
</g>
<path d="M21 11C21 9.89543 21.8954 9 23 9H203C204.105 9 205 9.89543 205 11V53C205 54.1046 204.105 55 203 55H23C21.8954 55 21 54.1046 21 53V11Z" fill="#03A803"/>
<path d="M67.496 34.1281L67.448 32.8961V31.1521H69.128V32.8961L69.048 34.1281L70.312 34.0481H71.976V35.7121H70.312L69.048 35.6641L69.128 36.8641V38.7041H67.448V36.8641L67.496 35.6641L66.024 35.7121H64.6V34.0481H66.024L67.496 34.1281Z" fill="white"/>
<path d="M78.8581 29.9201C79.8074 29.9201 80.6074 30.1334 81.2581 30.5601C81.9194 30.9761 82.4154 31.5574 82.7461 32.3041C83.0874 33.0507 83.2581 33.9094 83.2581 34.8801C83.2581 36.2987 82.9328 37.5894 82.2821 38.7521C81.6421 39.9041 80.8101 40.8267 79.7861 41.5201C78.7621 42.2241 77.7114 42.6294 76.6341 42.7361L76.1061 41.7761C77.1834 41.4561 78.0581 40.9067 78.7301 40.1281C79.4128 39.3494 79.8928 38.4054 80.1701 37.2961C79.9141 37.5307 79.5941 37.7227 79.2101 37.8721C78.8261 38.0214 78.3941 38.0961 77.9141 38.0961C77.2314 38.0961 76.6181 37.9414 76.0741 37.6321C75.5408 37.3121 75.1194 36.8641 74.8101 36.2881C74.5114 35.7014 74.3621 35.0241 74.3621 34.2561C74.3621 33.4774 74.5381 32.7574 74.8901 32.0961C75.2528 31.4347 75.7701 30.9067 76.4421 30.5121C77.1248 30.1174 77.9301 29.9201 78.8581 29.9201ZM78.7941 36.7361C79.1354 36.7361 79.4501 36.6667 79.7381 36.5281C80.0261 36.3894 80.2501 36.2294 80.4101 36.0481C80.4528 35.5147 80.4794 35.1147 80.4901 34.8481C80.4901 33.5894 80.3514 32.6294 80.0741 31.9681C79.7968 31.3067 79.3434 30.9761 78.7141 30.9761C78.1914 30.9761 77.7861 31.2481 77.4981 31.7921C77.2101 32.3254 77.0661 32.9974 77.0661 33.8081C77.0661 34.8107 77.2208 35.5521 77.5301 36.0321C77.8394 36.5014 78.2608 36.7361 78.7941 36.7361Z" fill="white"/>
<path d="M89.3078 40.1601C87.9425 40.1601 86.8865 39.7281 86.1399 38.8641C85.3932 37.9894 85.0198 36.7467 85.0198 35.1361C85.0198 33.9841 85.2332 33.0187 85.6599 32.2401C86.0865 31.4507 86.6572 30.8694 87.3719 30.4961C88.0865 30.1121 88.8759 29.9201 89.7399 29.9201C91.1052 29.9201 92.1505 30.3467 92.8759 31.2001C93.6119 32.0427 93.9799 33.2747 93.9799 34.8961C93.9799 36.0481 93.7665 37.0187 93.3398 37.8081C92.9238 38.5974 92.3639 39.1894 91.6599 39.5841C90.9559 39.9681 90.1719 40.1601 89.3078 40.1601ZM89.5159 39.1201C90.0812 39.1201 90.5025 38.7894 90.7799 38.1281C91.0572 37.4667 91.1959 36.4587 91.1959 35.1041C91.1959 34.0907 91.1372 33.2854 91.0198 32.6881C90.9132 32.0907 90.7372 31.6587 90.4918 31.3921C90.2465 31.1147 89.9158 30.9761 89.4998 30.9761C88.3692 30.9761 87.8039 32.2934 87.8039 34.9281C87.8039 36.4107 87.9372 37.4827 88.2038 38.1441C88.4705 38.7947 88.9079 39.1201 89.5159 39.1201Z" fill="white"/>
<path d="M101.393 32.4161C101.212 32.4694 100.886 32.5441 100.417 32.6401C99.9583 32.7254 99.6116 32.7787 99.377 32.8001L99.201 31.5361C99.7983 31.4187 100.428 31.2001 101.089 30.8801C101.75 30.5601 102.278 30.2347 102.673 29.9041H102.689L104.129 30.0961V38.7681L105.857 38.9601V40.0001H99.537V38.9601L101.393 38.7841V32.4161Z" fill="white"/>
<path d="M106.653 39.0241C108.114 38.1387 109.288 37.2054 110.173 36.2241C111.069 35.2321 111.517 34.2507 111.517 33.2801C111.517 32.8001 111.357 32.4161 111.037 32.1281C110.728 31.8401 110.306 31.6961 109.773 31.6961C109.41 31.6961 109.08 31.7494 108.781 31.8561C108.493 31.9627 108.258 32.0801 108.077 32.2081C107.906 32.3254 107.688 32.4961 107.421 32.7201L106.765 31.7441C106.968 31.4774 107.277 31.2054 107.693 30.9281C108.109 30.6401 108.584 30.4001 109.117 30.2081C109.661 30.0161 110.21 29.9201 110.765 29.9201C111.565 29.9201 112.237 30.0534 112.781 30.3201C113.325 30.5761 113.725 30.9227 113.981 31.3601C114.248 31.7974 114.381 32.2827 114.381 32.8161C114.381 33.8187 113.901 34.8107 112.941 35.7921C111.992 36.7734 110.749 37.6961 109.213 38.5601L113.661 38.0961L114.301 36.7681L115.405 37.0081L114.925 40.0001H107.037L106.653 39.0241Z" fill="white"/>
<path d="M118.707 42.5601C118.355 42.5601 117.966 42.5281 117.539 42.4641C117.123 42.4107 116.792 42.3467 116.547 42.2721V40.9281C117.016 41.0774 117.534 41.1521 118.099 41.1521C118.792 41.1521 119.39 41.0401 119.891 40.8161C120.403 40.5921 120.792 40.2827 121.059 39.8881C121.326 39.4934 121.459 39.0561 121.459 38.5761C121.459 37.2641 120.712 36.5654 119.219 36.4801L118.291 36.7201L117.939 35.6481C118.323 35.5947 118.755 35.4614 119.235 35.2481C119.822 34.9707 120.264 34.6347 120.563 34.2401C120.872 33.8454 121.027 33.4241 121.027 32.9761C121.027 32.4961 120.872 32.1441 120.563 31.9201C120.254 31.6854 119.87 31.5681 119.411 31.5681C118.942 31.5681 118.51 31.6481 118.115 31.8081C117.731 31.9574 117.406 32.1441 117.139 32.3681L116.499 31.2481C116.691 31.0667 116.984 30.8747 117.379 30.6721C117.784 30.4587 118.238 30.2827 118.739 30.1441C119.251 29.9947 119.763 29.9201 120.275 29.9201C121.331 29.9201 122.184 30.1387 122.835 30.5761C123.486 31.0134 123.811 31.6694 123.811 32.5441C123.811 33.3227 123.512 33.9947 122.915 34.5601C122.328 35.1254 121.587 35.5681 120.691 35.8881C120.808 35.8774 120.974 35.8721 121.187 35.8721C122.147 35.8721 122.926 36.1121 123.523 36.5921C124.12 37.0614 124.419 37.7067 124.419 38.5281C124.419 39.2854 124.19 39.9681 123.731 40.5761C123.272 41.1947 122.611 41.6801 121.747 42.0321C120.883 42.3841 119.87 42.5601 118.707 42.5601Z" fill="white"/>
<path d="M133.32 35.7281H126.792V34.0481H133.32V35.7281Z" fill="white"/>
<path d="M141.365 40.0001H136.101L135.509 39.0881C136.331 37.5627 137.797 34.2347 139.909 29.1041H140.437L142.565 30.1761L138.629 37.6161L137.909 38.6881L141.381 38.4641L141.605 35.5521L143.573 35.4081V38.3041L145.493 38.1921V40.0001H143.573V42.5601H141.365V40.0001Z" fill="white"/>
<path d="M147.236 41.2961C147.545 41.3281 147.854 41.3441 148.164 41.3441C148.878 41.3441 149.529 41.1947 150.116 40.8961C150.713 40.6081 151.182 40.2134 151.524 39.7121C151.865 39.2001 152.036 38.6507 152.036 38.0641C152.036 37.3281 151.849 36.8054 151.476 36.4961C151.113 36.1761 150.585 36.0161 149.892 36.0161C149.54 36.0161 149.161 36.0641 148.756 36.1601C148.35 36.2454 148.009 36.3467 147.732 36.4641L147.14 36.0481L147.908 30.0641H153.092L153.252 29.7601H154.42L154.052 31.9841H149.588L148.964 35.0561C149.796 34.6401 150.638 34.4321 151.492 34.4321C152.612 34.4321 153.46 34.7147 154.036 35.2801C154.622 35.8347 154.916 36.6081 154.916 37.6001C154.916 38.5707 154.633 39.4347 154.068 40.1921C153.502 40.9494 152.718 41.5361 151.716 41.9521C150.724 42.3681 149.604 42.5761 148.356 42.5761C147.95 42.5761 147.577 42.5387 147.236 42.4641V41.2961Z" fill="white"/>
<path d="M164.132 35.7281H157.604V34.0481H164.132V35.7281Z" fill="white"/>
<path d="M171.378 40.1921C170.461 40.1921 169.666 39.9734 168.994 39.5361C168.333 39.0881 167.826 38.4801 167.474 37.7121C167.122 36.9441 166.946 36.0801 166.946 35.1201C166.946 33.7334 167.287 32.4747 167.97 31.3441C168.663 30.2027 169.538 29.2907 170.594 28.6081C171.65 27.9254 172.706 27.5307 173.762 27.4241L174.306 28.3841C173.218 28.7041 172.311 29.2534 171.586 30.0321C170.871 30.8107 170.359 31.7334 170.05 32.8001C170.658 32.2774 171.447 32.0161 172.418 32.0161C173.453 32.0161 174.279 32.3414 174.898 32.9921C175.517 33.6427 175.826 34.5387 175.826 35.6801C175.826 36.4801 175.65 37.2267 175.298 37.9201C174.957 38.6027 174.45 39.1521 173.778 39.5681C173.106 39.9841 172.306 40.1921 171.378 40.1921ZM171.458 33.3601C171.106 33.3601 170.781 33.4294 170.482 33.5681C170.194 33.7067 169.965 33.8721 169.794 34.0641C169.751 34.3627 169.73 34.8214 169.73 35.4401C169.73 37.8934 170.306 39.1201 171.458 39.1201C171.991 39.1201 172.402 38.8481 172.69 38.3041C172.978 37.7494 173.122 37.0401 173.122 36.1761C173.122 34.2987 172.567 33.3601 171.458 33.3601Z" fill="white"/>
<path d="M178.958 42.2241C179.652 40.8694 180.329 39.4241 180.99 37.8881C181.662 36.3414 182.409 34.5761 183.23 32.5921L183.646 31.6001L179.726 31.6801L178.798 34.1601L177.278 33.8561L177.694 30.0641H185.534L186.014 30.6721L181.742 42.9601L178.958 42.2241Z" fill="white"/>
<g clip-path="url(#clip0)">
<path d="M44.6244 36.3743C43.0973 34.8472 42.7524 33.32 42.6746 32.7081C42.6529 32.539 42.7111 32.3693 42.8321 32.2491L44.068 31.0138C44.2498 30.8321 44.2821 30.549 44.1458 30.331L42.1781 27.2756C42.0273 27.0343 41.7178 26.9472 41.4633 27.0745L38.3044 28.5622C38.0986 28.6635 37.9776 28.8822 38.001 29.1103C38.1665 30.6828 38.852 34.5481 42.6506 38.347C46.4493 42.1459 50.3141 42.8312 51.8873 42.9967C52.1155 43.0201 52.3341 42.899 52.4355 42.6932L53.9232 39.5343C54.05 39.2804 53.9635 38.9717 53.7232 38.8207L50.6677 36.8535C50.4499 36.7171 50.1668 36.7491 49.985 36.9308L48.7497 38.1666C48.6295 38.2877 48.4598 38.3459 48.2906 38.3241C47.6788 38.2463 46.1516 37.9015 44.6244 36.3743Z" fill="white"/>
<path d="M50.6887 35.5513C50.3839 35.5513 50.1369 35.3043 50.1369 34.9996C50.1343 32.7154 48.2833 30.8643 45.999 30.8617C45.6943 30.8617 45.4473 30.6147 45.4473 30.31C45.4473 30.0053 45.6943 29.7583 45.999 29.7583C48.8924 29.7615 51.2372 32.1062 51.2404 34.9996C51.2404 35.3043 50.9934 35.5513 50.6887 35.5513Z" fill="white"/>
<path d="M53.4473 35.5517C53.1426 35.5517 52.8956 35.3047 52.8956 35C52.8913 31.1929 49.8061 28.1077 45.999 28.1034C45.6943 28.1034 45.4473 27.8564 45.4473 27.5517C45.4473 27.247 45.6943 27 45.999 27C50.4153 27.0049 53.9941 30.5837 53.999 35C53.999 35.1463 53.9409 35.2867 53.8374 35.3901C53.7339 35.4936 53.5936 35.5517 53.4473 35.5517Z" fill="white"/>
</g>
</g>
<defs>
<filter id="filter0_d" x="17" y="9" width="192" height="56" filterUnits="userSpaceOnUse" color-interpolation-filters="sRGB">
<feFlood flood-opacity="0" result="BackgroundImageFix"/>
<feColorMatrix in="SourceAlpha" type="matrix" values="0 0 0 0 0 0 0 0 0 0 0 0 0 0 0 0 0 0 127 0"/>
<feOffset dy="4"/>
<feGaussianBlur stdDeviation="2"/>
<feColorMatrix type="matrix" values="0 0 0 0 0 0 0 0 0 0 0 0 0 0 0 0 0 0 0.25 0"/>
<feBlend mode="normal" in2="BackgroundImageFix" result="effect1_dropShadow"/>
<feBlend mode="normal" in="SourceGraphic" in2="effect1_dropShadow" result="shape"/>
</filter>
<filter id="filter1_f" x="0" y="-5" width="226" height="92" filterUnits="userSpaceOnUse" color-interpolation-filters="sRGB">
<feFlood flood-opacity="0" result="BackgroundImageFix"/>
<feBlend mode="normal" in="SourceGraphic" in2="BackgroundImageFix" result="shape"/>
<feGaussianBlur stdDeviation="15" result="effect1_foregroundBlur"/>
</filter>
<clipPath id="clip0">
<rect width="16" height="16" fill="white" transform="translate(38 27)"/>
</clipPath>
</defs>
</svg>
