<svg width="140" height="143" viewBox="0 0 140 143" fill="none" xmlns="http://www.w3.org/2000/svg">
<path d="M114.403 39.356C114.403 39.356 111.797 40.8592 112.599 42.9637C112.599 42.9637 115.305 43.7655 116.407 45.7698C117.51 47.7741 126.028 54.9896 126.028 54.9896L132.242 51.8829C132.242 51.8829 130.08 48.9975 123.244 46.9828C123.244 46.9828 119.213 42.6631 117.81 41.8613C116.407 41.0596 114.403 39.356 114.403 39.356Z" fill="#CBCDDA"/>
<path opacity="0.05" d="M114.403 39.356C114.403 39.356 111.797 40.8592 112.599 42.9637C112.599 42.9637 115.305 43.7655 116.407 45.7698C117.51 47.7741 126.028 54.9896 126.028 54.9896L132.242 51.8829C132.242 51.8829 130.08 48.9975 123.244 46.9828C123.244 46.9828 119.213 42.6631 117.81 41.8613C116.407 41.0596 114.403 39.356 114.403 39.356Z" fill="black"/>
<path opacity="0.1" d="M24.3149 135.291C22.977 135.622 21.5775 135.236 20.1994 135.22C18.8214 135.203 17.2136 135.782 16.8759 137.119C16.4223 138.913 18.5201 140.266 20.3164 140.713C27.2881 142.448 34.6681 140.196 41.7935 141.115C44.7962 141.502 47.7162 142.449 50.7353 142.675C57.6456 143.192 64.3974 139.906 71.3171 140.276C74.7838 140.462 78.1533 141.563 81.6205 141.739C89.9162 142.162 98.1003 137.292 106.221 139.037C108.515 139.53 110.668 140.534 112.94 141.116C118.684 142.587 124.732 141.276 130.515 139.964C131.663 139.704 133.047 139.197 133.189 138.028C133.345 136.738 131.864 135.929 130.632 135.517C117.158 131.011 102.732 128.624 88.6782 130.707C85.48 131.181 82.291 131.885 79.0582 131.838C71.9029 131.735 65.3279 128.003 58.3034 126.638C44.993 124.051 31.6848 130.086 19.4658 135.964" fill="#03A803"/>
<path d="M42.7631 97.0522H38.6884V131.502C38.6884 131.502 64.9889 140.022 90.5486 131.502V97.0522H42.7631Z" fill="#3F3D56"/>
<path d="M64.248 101.128C78.3643 101.128 89.8077 99.3863 89.8077 97.2382C89.8077 95.09 78.3643 93.3486 64.248 93.3486C50.1318 93.3486 38.6884 95.09 38.6884 97.2382C38.6884 99.3863 50.1318 101.128 64.248 101.128Z" fill="#3F3D56"/>
<path opacity="0.1" d="M64.248 101.128C78.3643 101.128 89.8077 99.3863 89.8077 97.2382C89.8077 95.09 78.3643 93.3486 64.248 93.3486C50.1318 93.3486 38.6884 95.09 38.6884 97.2382C38.6884 99.3863 50.1318 101.128 64.248 101.128Z" fill="black"/>
<path d="M93.9595 55.893C87.5116 79.7281 65.4262 94.4897 65.4262 94.4897C65.4262 94.4897 53.7949 70.6071 60.2428 46.772C66.6906 22.937 88.776 8.17529 88.776 8.17529C88.776 8.17529 100.407 32.0579 93.9595 55.893Z" fill="#595770"/>
<path d="M35.3019 55.893C41.7498 79.7281 63.8351 94.4897 63.8351 94.4897C63.8351 94.4897 75.4665 70.6071 69.0186 46.772C62.5707 22.937 40.4854 8.17529 40.4854 8.17529C40.4854 8.17529 28.854 32.0579 35.3019 55.893Z" fill="#03A803"/>
<path d="M44.7765 50.7705C62.4696 67.994 64.6307 94.4706 64.6307 94.4706C64.6307 94.4706 38.1056 93.0223 20.4126 75.7988C2.71955 58.5752 0.558472 32.0986 0.558472 32.0986C0.558472 32.0986 27.0835 33.5469 44.7765 50.7705Z" fill="#3F3D56"/>
<path d="M86.4848 50.7705C68.7918 67.994 66.6307 94.4706 66.6307 94.4706C66.6307 94.4706 93.1557 93.0223 110.849 75.7988C128.542 58.5752 130.703 32.0986 130.703 32.0986C130.703 32.0986 104.178 33.5469 86.4848 50.7705Z" fill="#3F3D56"/>
<path d="M64.6184 16.299C69.1193 16.299 72.7679 12.6503 72.7679 8.14948C72.7679 3.64864 69.1193 0 64.6184 0C60.1176 0 56.469 3.64864 56.469 8.14948C56.469 12.6503 60.1176 16.299 64.6184 16.299Z" fill="#03A803"/>
<path d="M15.8173 65.8622C16.3952 67.9589 18.4027 69.2345 18.4027 69.2345C18.4027 69.2345 19.4734 67.1106 18.8956 65.0139C18.3177 62.9172 16.3102 61.6416 16.3102 61.6416C16.3102 61.6416 15.2395 63.7655 15.8173 65.8622Z" fill="#03A803"/>
<path d="M26.6331 77.5397C26.0111 79.6237 27.0368 81.7698 27.0368 81.7698C27.0368 81.7698 29.0708 80.5368 29.6928 78.4528C30.3148 76.3687 29.2891 74.2227 29.2891 74.2227C29.2891 74.2227 27.2551 75.4556 26.6331 77.5397Z" fill="#03A803"/>
<path d="M104.646 90.9467C103.12 92.4959 103.019 94.8723 103.019 94.8723C103.019 94.8723 105.394 94.737 106.921 93.1879C108.447 91.6387 108.548 89.2622 108.548 89.2622C108.548 89.2622 106.173 89.3975 104.646 90.9467Z" fill="#03A803"/>
<path d="M130.638 124.843C130.638 124.843 130.939 129.252 131.44 129.753C131.941 130.254 126.93 130.555 126.93 130.555L127.632 124.843H130.638Z" fill="#FFB9B9"/>
<path opacity="0.05" d="M130.638 124.843C130.638 124.843 130.939 129.252 131.44 129.753C131.941 130.254 126.93 130.555 126.93 130.555L127.632 124.843H130.638Z" fill="black"/>
<path d="M131.741 128.25C131.741 128.25 131.039 128.25 128.534 129.553C128.534 129.553 126.83 129.252 126.128 126.847C126.128 126.847 124.024 130.455 122.621 130.655C121.218 130.856 118.512 131.056 120.316 133.461C122.12 135.867 132.743 134.764 132.743 134.764C132.743 134.764 133.044 128.952 131.741 128.25Z" fill="#CBCDDA"/>
<path opacity="0.05" d="M131.741 128.25C131.741 128.25 131.039 128.25 128.534 129.553C128.534 129.553 126.83 129.252 126.128 126.847C126.128 126.847 124.024 130.455 122.621 130.655C121.218 130.856 118.512 131.056 120.316 133.461C122.12 135.867 132.743 134.764 132.743 134.764C132.743 134.764 133.044 128.952 131.741 128.25Z" fill="black"/>
<path d="M130.237 131.657L129.536 133.562L124.926 132.259L125.188 130.369L125.251 129.913L125.427 128.651C125.427 128.651 129.335 127.648 129.335 128.15C129.388 128.563 129.474 128.971 129.592 129.37C129.752 129.987 129.954 130.689 130.089 131.151C130.177 131.457 130.237 131.657 130.237 131.657Z" fill="#FFB9B9"/>
<path d="M127.722 105.521C127.406 106.055 127.048 107.057 127.713 108.31C127.91 108.672 128.152 109.008 128.434 109.309C130.638 111.714 131.24 117.126 131.24 117.126V125.845L129.736 125.96L127.331 126.146L123.723 111.313C123.723 111.313 121.619 100.49 122.621 98.5855C123.623 96.6814 124.525 84.7554 124.525 84.7554L125.357 83.8936L127.331 81.8491H133.044C133.501 82.177 133.88 82.6012 134.155 83.0918C135.114 84.6793 135.975 87.9805 133.344 94.0757C129.235 103.596 128.033 105.1 128.033 105.1C127.913 105.228 127.809 105.369 127.722 105.521Z" fill="#4C4C78"/>
<path opacity="0.05" d="M127.722 105.521C127.406 106.055 127.048 107.057 127.713 108.31C127.91 108.672 128.152 109.008 128.434 109.309C130.638 111.714 131.24 117.126 131.24 117.126V125.845L129.736 125.96L127.331 126.146L123.723 111.313C123.723 111.313 121.619 100.49 122.621 98.5855C123.623 96.6814 124.525 84.7554 124.525 84.7554L125.357 83.8936L127.331 81.8491H133.044C133.501 82.177 133.88 82.6012 134.155 83.0918C135.114 84.6793 135.975 87.9805 133.344 94.0757C129.235 103.596 128.033 105.1 128.033 105.1C127.913 105.228 127.809 105.369 127.722 105.521Z" fill="black"/>
<path opacity="0.1" d="M129.592 129.37L125.251 129.913L125.427 128.651C125.427 128.651 129.335 127.648 129.335 128.15C129.388 128.563 129.474 128.971 129.592 129.37Z" fill="black"/>
<path d="M127.431 92.6729C127.431 92.6729 127.681 100.562 127.722 105.521C127.731 106.642 127.73 107.615 127.713 108.31C127.719 108.678 127.692 109.046 127.632 109.409C127.331 110.311 127.932 112.316 127.932 112.316C130.438 118.93 129.736 124.743 129.736 124.743V129.153L124.926 129.754C124.926 129.754 125.728 129.153 123.523 123.34C122.256 120.001 121.981 116.728 121.977 114.548C121.966 113.354 121.727 112.173 121.274 111.069C121.135 110.697 121.049 110.307 121.017 109.911C120.817 107.906 119.915 105.401 119.915 105.401C119.915 105.401 117.51 98.2851 116.908 93.0738C116.63 90.5932 116.677 88.0869 117.048 85.6185C117.136 84.991 117.257 84.3685 117.409 83.7534C117.409 83.7534 127.207 77.5879 130.906 81.8492C131.262 82.2661 131.544 82.7406 131.741 83.2523C131.944 83.7578 132.102 84.2803 132.214 84.8137C133.365 90.4691 127.431 92.6729 127.431 92.6729Z" fill="#4C4C78"/>
<path d="M127.131 48.776C129.953 48.776 132.242 46.4877 132.242 43.6649C132.242 40.842 129.953 38.5537 127.131 38.5537C124.308 38.5537 122.019 40.842 122.019 43.6649C122.019 46.4877 124.308 48.776 127.131 48.776Z" fill="#FFB9B9"/>
<path d="M124.324 46.8718C124.324 46.8718 126.429 52.7848 124.324 55.8915C122.22 58.9983 131.039 57.9961 131.039 57.9961L134.447 53.8872C134.447 53.8872 130.438 53.8872 130.237 46.8718C130.037 39.8565 124.324 46.8718 124.324 46.8718Z" fill="#FFB9B9"/>
<path opacity="0.1" d="M134.447 84.2543C133.72 84.5056 132.973 84.6927 132.214 84.8135C130.966 85.0059 129.494 85.0129 128.634 84.2543C128.124 83.8043 126.867 83.7492 125.357 83.8935C122.176 84.1981 117.87 85.3847 117.048 85.6182C117.136 84.9908 117.257 84.3683 117.409 83.7532C117.409 83.7532 127.207 77.5881 130.906 81.8491H133.044C133.501 82.177 133.88 82.6012 134.155 83.0918C134.34 83.8895 134.447 84.2543 134.447 84.2543Z" fill="black"/>
<path opacity="0.1" d="M130.237 131.658L129.536 133.562L124.926 132.259L125.188 130.369C125.98 132.121 127.331 132.359 127.331 132.359C128.788 131.602 129.635 131.285 130.089 131.152C130.177 131.457 130.237 131.658 130.237 131.658Z" fill="black"/>
<path d="M130.538 131.156C130.538 131.156 129.837 131.156 127.331 132.459C127.331 132.459 125.627 132.158 124.926 129.753C124.926 129.753 122.821 133.361 121.418 133.561C120.015 133.762 117.309 133.962 119.113 136.368C120.917 138.773 131.54 137.671 131.54 137.671C131.54 137.671 131.841 131.858 130.538 131.156Z" fill="#CBCDDA"/>
<path d="M106.761 44.6437C106.761 44.6437 106.957 40.7405 111.059 41.1225C111.174 41.1334 111.284 41.1724 111.381 41.2362C111.477 41.2999 111.556 41.3864 111.61 41.4879C111.665 41.5895 111.694 41.7029 111.694 41.8183C111.695 41.9336 111.667 42.0473 111.613 42.1492L110.772 43.7323L106.761 44.6437Z" fill="#FFB9B9"/>
<path d="M130.438 55.0903C130.438 55.0903 125.527 54.2885 124.224 53.2864C124.224 53.2864 123.222 55.1905 121.418 54.1883C119.614 53.1861 115.405 53.2864 115.405 53.2864C115.405 53.2864 111.897 51.3822 111.196 47.0728C111.196 47.0728 110.494 44.4672 110.695 43.7656C110.695 43.7656 108.089 41.0597 106.786 44.6676C107.287 47.173 107.688 46.9726 107.588 48.977L109.191 53.3866C109.191 53.3866 109.292 54.8898 112.198 56.8942C115.104 58.8986 118.412 62.0053 118.412 62.0053C118.412 62.0053 116.658 62.9574 117.309 67.3169C118.105 72.6454 116.908 80.2451 116.908 80.2451V85.1558C116.908 85.1558 126.93 82.2494 128.634 83.7527C130.338 85.256 134.447 83.7527 134.447 83.7527C134.447 83.7527 133.946 82.049 133.244 77.94C132.543 73.8311 133.344 69.8224 133.344 69.8224C133.344 69.8224 135.95 62.9073 137.153 60.1012C138.355 57.2951 136.251 53.4868 134.146 52.0837C132.041 50.6807 131.258 51.5231 131.258 51.5231C131.258 51.5231 134.948 54.1883 130.438 55.0903Z" fill="#CBCDDA"/>
<path opacity="0.1" d="M121.603 42.4154C121.601 42.624 121.636 42.8313 121.707 43.0277C121.824 43.2512 121.983 43.4496 122.177 43.6117C122.927 44.3451 123.586 45.2167 123.85 46.2322C124.029 46.9198 124.019 47.6404 124.008 48.3508C123.965 51.2284 123.844 54.3342 122.067 56.5977C121.413 57.4296 120.574 58.0911 119.784 58.7951C119.674 58.876 119.591 58.9878 119.545 59.1162C119.523 59.253 119.549 59.3931 119.619 59.5128C119.985 60.2746 120.758 60.7418 121.489 61.1657C121.823 61.3595 122.175 61.5586 122.561 61.5711C123.473 61.6006 124.075 60.6381 124.904 60.2594C126.111 59.7082 127.466 60.4754 128.665 61.0459C129.533 61.459 130.443 61.7765 131.379 61.9926C132.662 62.2886 134.112 62.3612 135.192 61.6085C135.817 61.1687 136.243 60.5012 136.38 59.7499C136.467 59.2602 136.453 58.6917 136.824 58.3602C137.015 58.1893 137.276 58.1184 137.482 57.967C137.803 57.7322 137.955 57.337 138.092 56.9639L139.326 53.5884C139.486 53.2317 139.568 52.8454 139.568 52.4548C139.508 51.642 138.759 51.052 138.006 50.7395C137.254 50.4271 136.421 50.273 135.759 49.7975C134.64 48.9934 134.295 47.4918 134.194 46.1175C134.125 45.1736 134.132 44.2258 134.215 43.283C134.337 41.8848 134.61 40.3961 133.988 39.1379C133.324 37.7942 131.834 37.1081 130.454 36.5227C129.924 36.2979 129.38 36.0698 128.805 36.0444C128.196 36.0175 127.604 36.2197 127.028 36.4193C126.114 36.7364 125.186 37.147 124.242 37.362C123.711 37.4828 123.13 37.3924 122.619 37.5843C120.74 38.2891 121.603 40.9025 121.603 42.4154Z" fill="black"/>
<path d="M121.603 42.2148C121.601 42.4234 121.636 42.6306 121.707 42.827C121.824 43.0505 121.983 43.2489 122.177 43.411C122.927 44.1444 123.586 45.016 123.85 46.0316C124.029 46.7192 124.019 47.4398 124.008 48.1502C123.965 51.0277 123.844 54.1336 122.067 56.3971C121.413 57.229 120.574 57.8905 119.784 58.5945C119.674 58.6754 119.591 58.7872 119.545 58.9156C119.523 59.0525 119.549 59.1926 119.619 59.3122C119.985 60.074 120.758 60.5412 121.489 60.9652C121.823 61.1589 122.175 61.3581 122.561 61.3706C123.473 61.4001 124.075 60.4375 124.904 60.0588C126.111 59.5076 127.466 60.2749 128.665 60.8453C129.533 61.2585 130.443 61.5759 131.379 61.7921C132.662 62.088 134.112 62.1607 135.192 61.4079C135.817 60.9681 136.243 60.3006 136.38 59.5493C136.467 59.0596 136.453 58.4911 136.824 58.1596C137.015 57.9888 137.276 57.9178 137.482 57.7664C137.803 57.5316 137.955 57.1364 138.092 56.7633L139.326 53.3878C139.486 53.0311 139.568 52.6448 139.568 52.2542C139.508 51.4414 138.759 50.8514 138.006 50.5389C137.254 50.2264 136.421 50.0724 135.759 49.5969C134.64 48.7928 134.295 47.2912 134.194 45.9169C134.125 44.973 134.132 44.0251 134.215 43.0823C134.337 41.6842 134.61 40.1954 133.988 38.9372C133.324 37.5935 131.834 36.9075 130.454 36.3221C129.924 36.0973 129.38 35.8691 128.805 35.8437C128.196 35.8169 127.604 36.0191 127.028 36.2186C126.114 36.5357 125.186 36.9463 124.242 37.1614C123.711 37.2822 123.13 37.1918 122.619 37.3836C120.74 38.0884 121.603 40.7018 121.603 42.2148Z" fill="black"/>
<path opacity="0.05" d="M117.562 69.5648C117.562 69.5648 118.361 69.3711 122.37 68.7699C126.379 68.1687 133.394 69.5715 133.394 69.5715" fill="black"/>
<path d="M7.40808 86.0441C7.98592 88.1408 9.99349 89.4163 9.99349 89.4163C9.99349 89.4163 11.0642 87.2925 10.4864 85.1959C9.90852 83.0992 7.90095 81.8237 7.90095 81.8237C7.90095 81.8237 6.83023 83.9475 7.40808 86.0441Z" fill="#03A803"/>
</svg>
