<svg width="24" height="24" viewBox="0 0 24 24" fill="none" xmlns="http://www.w3.org/2000/svg">
<path d="M16.6543 7.8944L7.85114 13.3543C7.69615 13.4504 7.62564 13.6391 7.67972 13.8133L8.86058 17.6183C8.88538 17.6983 9.00187 17.6873 9.01124 17.6041L9.29826 15.0527C9.30932 14.9541 9.35661 14.8631 9.43091 14.7974L16.8856 8.20527C17.0641 8.04749 16.8568 7.7688 16.6543 7.8944Z" fill="#03A803"/>
<path d="M0 0V24H24V0H0ZM20.0056 6.23621L17.2655 19.3366C17.1369 19.9513 16.4159 20.2274 15.9096 19.8558L11.7725 16.819L9.66391 18.9719C9.29385 19.3497 8.65458 19.1968 8.49559 18.6923L6.97359 13.8629L2.89534 12.6586C2.36029 12.5006 2.32874 11.7546 2.84858 11.552L18.8977 5.29786C19.5086 5.05983 20.1398 5.59446 20.0056 6.23621Z" fill="#03A803"/>
</svg>
