<svg width="184" height="136" viewBox="0 0 184 136" fill="none" xmlns="http://www.w3.org/2000/svg">
<g clip-path="url(#clip0)">
<path d="M132.408 80.6801L133.856 79.7891C133.993 79.7021 134.129 79.6093 134.268 79.5224C131.164 78.9898 128.335 77.4158 126.25 75.0609C124.164 72.706 122.948 69.7114 122.801 66.5727C122.695 64.4142 123.104 62.2613 123.995 60.2912C124.824 58.448 126.049 56.8087 127.583 55.4889C129.116 54.1692 130.922 53.2011 132.871 52.6529L132.8 58.3352L135.929 52.1504C135.942 52.1483 135.955 52.1483 135.968 52.1504C137.781 52.0659 139.594 52.3386 141.301 52.9528C143.009 53.567 144.579 54.5107 145.921 55.7301C147.263 56.9494 148.352 58.4206 149.124 60.0594C149.896 61.6983 150.337 63.4728 150.421 65.2817C150.433 65.5445 150.421 65.8035 150.421 66.0548C151.51 64.8159 152.499 63.488 153.153 62.0327C154.479 59.0852 154.51 55.7473 154.399 51.6903C154.19 43.65 153.843 35.5497 153.39 27.4726C150.122 27.1107 147.091 25.5984 144.841 23.2075C142.591 20.8166 141.27 17.7038 141.114 14.4283C141.095 14.005 141.101 13.5895 141.114 13.1759C141.114 13.0734 141.114 12.9691 141.13 12.8666C141.157 12.4665 141.194 12.0703 141.256 11.6799C141.256 11.6142 141.279 11.5523 141.291 11.4866C141.348 11.1555 141.415 10.8282 141.494 10.5048C141.525 10.3849 141.554 10.2632 141.587 10.1433C141.684 9.79157 141.781 9.4456 141.915 9.1035C141.955 8.98947 142.004 8.8793 142.046 8.7672C142.145 8.51594 142.252 8.26854 142.364 8.02308C142.424 7.89358 142.482 7.76602 142.546 7.63652C142.562 7.60367 142.575 7.57081 142.593 7.53795C144.052 4.6636 146.474 2.39005 149.44 1.11252C152.405 -0.165021 155.725 -0.365773 158.823 0.545156L158.73 7.93997L161.831 1.83239C164.374 3.28433 166.385 5.50926 167.57 8.18222C168.755 10.8552 169.053 13.8361 168.419 16.6897H168.434C168.413 16.7882 168.382 16.8829 168.359 16.9796C168.316 17.1613 168.27 17.341 168.219 17.5208C168.153 17.7508 168.08 17.9769 168.004 18.203C167.946 18.3712 167.89 18.5432 167.826 18.7094C167.733 18.9529 167.632 19.1907 167.52 19.4284C167.458 19.5676 167.401 19.7087 167.326 19.8459C167.149 20.2015 166.955 20.5494 166.745 20.8896C166.673 21.0075 166.592 21.1196 166.516 21.2375C166.369 21.4656 166.219 21.6917 166.059 21.912C165.96 22.0473 165.853 22.1768 165.749 22.3102C165.597 22.5035 165.442 22.6967 165.282 22.8726C165.167 23.0021 165.051 23.1297 164.931 23.2592C164.762 23.437 164.588 23.609 164.408 23.7791C164.29 23.8931 164.169 24.0072 164.045 24.1154C163.842 24.2951 163.629 24.4672 163.414 24.6353C163.305 24.7204 163.201 24.8093 163.088 24.8904C162.761 25.1327 162.424 25.3601 162.075 25.5727C162.009 25.6114 161.939 25.6442 161.881 25.6829C161.59 25.8549 161.3 26.0153 160.988 26.1661C160.858 26.2299 160.722 26.2859 160.588 26.3458C160.339 26.4579 160.087 26.5662 159.829 26.6647C159.68 26.7208 159.527 26.773 159.374 26.8252C159.12 26.9121 158.862 26.9914 158.598 27.0629C158.443 27.1054 158.29 27.1479 158.133 27.1846C157.85 27.2523 157.562 27.3083 157.271 27.3567C157.252 27.3567 157.234 27.3567 157.215 27.3683C157.406 30.7751 157.576 34.1839 157.725 37.5946C158.549 35.9069 159.71 34.405 161.137 33.181C162.564 31.957 164.226 31.0367 166.023 30.4766C167.819 29.9165 169.711 29.7283 171.583 29.9237C173.455 30.119 175.267 30.6938 176.908 31.6126L174.464 38.2904L179.491 33.4758C182.182 35.9358 183.784 39.3597 183.948 42.9967C184.012 44.2729 183.894 45.5516 183.597 46.7946C182.966 49.4846 181.538 51.9231 179.5 53.794C177.462 55.6648 174.908 56.8816 172.168 57.2864C169.428 57.6912 166.629 57.2654 164.135 56.0642C161.641 54.863 159.566 52.9419 158.18 50.55C158.18 50.896 158.205 51.2439 158.215 51.5898C158.306 55.1694 158.42 59.6225 156.632 63.6001C155.421 66.2964 153.469 68.4862 151.541 70.448C150.288 71.7255 148.987 72.9606 147.654 74.157C146.343 75.9126 144.632 77.3318 142.663 78.297C140.473 79.9798 138.206 81.5556 135.861 83.0246L134.437 83.9407C133.121 84.7544 131.773 85.5894 130.449 86.4533C130.682 86.4301 130.912 86.405 131.149 86.3953C134.078 86.2584 136.976 87.054 139.422 88.6671C141.869 90.2801 143.738 92.6272 144.759 95.3692L136.121 102.383L145.616 100.186C145.613 102.517 145.018 104.81 143.886 106.85C142.754 108.89 141.122 110.611 139.143 111.851C137.163 113.091 134.901 113.811 132.567 113.943C130.233 114.074 127.904 113.614 125.797 112.604C126.01 112.871 126.225 113.135 126.438 113.4C126.862 113.928 127.285 114.452 127.698 114.971C133.317 122.071 134.883 128.812 132.098 133.951L128.715 132.127C131.428 127.125 127.359 120.723 124.679 117.349C124.274 116.839 123.859 116.324 123.44 115.803C119.85 111.357 115.781 106.309 115.883 100.122C116.029 90.8059 125.115 85.1873 132.408 80.6801Z" fill="#F2F2F2"/>
<path fill-rule="evenodd" clip-rule="evenodd" d="M166.294 106.833C166.477 109.341 166.601 111.852 166.667 114.364L166.667 114.365C166.667 114.384 166.668 114.404 166.668 114.425C166.687 115.119 166.719 116.309 166.216 117.432L166.197 117.475L166.176 117.517C165.843 118.177 165.397 118.775 164.86 119.284C163.852 120.306 162.727 121.206 161.509 121.967L161.506 121.969C161.404 122.032 161.305 122.093 161.209 122.153C160.527 122.576 159.99 122.908 159.567 123.291C159.117 123.698 159.092 123.904 159.091 123.99L159.091 123.991C159.089 124.066 159.111 124.232 159.325 124.577C159.504 124.866 159.711 125.122 159.991 125.469C160.087 125.589 160.193 125.72 160.309 125.867C160.766 126.445 161.272 127.222 161.558 128.112C161.85 129.017 161.962 130.218 161.325 131.386L157.814 129.469C157.8 129.495 157.794 129.515 157.792 129.527C157.791 129.503 157.785 129.444 157.751 129.337C157.665 129.071 157.465 128.72 157.171 128.348C157.113 128.274 157.046 128.192 156.973 128.101C156.667 127.723 156.25 127.207 155.927 126.687C155.5 125.999 155.073 125.067 155.091 123.927M157.791 129.54C157.79 129.539 157.79 129.535 157.792 129.527C157.792 129.536 157.791 129.54 157.791 129.54ZM166.294 106.833L162.305 107.125L166.294 106.833ZM162.305 107.125C162.483 109.57 162.604 112.018 162.668 114.468L162.305 107.125ZM162.668 114.469C162.688 115.23 162.659 115.558 162.579 115.764C162.455 115.997 162.292 116.209 162.098 116.391L162.066 116.42L162.036 116.451C161.241 117.26 160.353 117.973 159.39 118.574C159.309 118.625 159.222 118.678 159.13 118.735C158.482 119.134 157.6 119.676 156.883 120.325C156.03 121.097 155.117 122.273 155.091 123.927" fill="#3F3D56"/>
<path d="M167.111 106.848C167.089 106.393 166.954 105.952 166.717 105.564C166.48 105.175 166.149 104.853 165.754 104.625L165.146 105.827L165.163 104.374C164.747 104.249 164.307 104.226 163.88 104.307C163.454 104.388 163.052 104.569 162.711 104.837C162.369 105.104 162.096 105.45 161.916 105.844C161.736 106.238 161.654 106.67 161.676 107.103C161.709 107.82 162.028 108.495 162.561 108.979C162.824 109.218 163.133 109.403 163.468 109.524C163.804 109.644 164.16 109.698 164.516 109.681C164.872 109.664 165.222 109.578 165.545 109.426C165.867 109.275 166.157 109.061 166.397 108.798C166.637 108.535 166.823 108.227 166.944 107.893C167.064 107.558 167.118 107.203 167.101 106.848H167.111Z" fill="#57B793"/>
<path d="M162.261 125.209C161.976 125.761 161.51 126.198 160.94 126.448C160.371 126.697 159.732 126.744 159.132 126.58C158.532 126.416 158.007 126.052 157.644 125.547C157.282 125.043 157.104 124.43 157.141 123.81C157.178 123.191 157.427 122.603 157.846 122.145C158.266 121.687 158.831 121.387 159.446 121.295C160.062 121.203 160.69 121.324 161.226 121.639C161.762 121.954 162.173 122.444 162.391 123.025L160.693 124.403L162.561 123.97C162.561 124.401 162.458 124.826 162.261 125.209Z" fill="#57B793"/>
<path d="M160.918 119.935C160.561 119.952 160.204 119.898 159.868 119.778C159.532 119.657 159.223 119.471 158.959 119.231C158.695 118.991 158.482 118.701 158.33 118.379C158.179 118.056 158.093 117.707 158.077 117.351C158.056 116.926 158.136 116.503 158.312 116.115C158.474 115.753 158.715 115.43 159.016 115.171C159.318 114.911 159.672 114.72 160.056 114.612L160.042 115.731L160.658 114.513C161.379 114.48 162.084 114.733 162.617 115.218C163.151 115.702 163.469 116.378 163.503 117.097C163.536 117.816 163.282 118.519 162.797 119.051C162.311 119.583 161.633 119.901 160.912 119.935H160.918Z" fill="#57B793"/>
<path d="M167.52 115.545C166.8 115.579 166.097 115.327 165.564 114.843C165.031 114.36 164.713 113.685 164.679 112.967C164.645 112.249 164.898 111.548 165.383 111.016C165.868 110.485 166.544 110.167 167.264 110.134C167.772 110.109 168.278 110.228 168.721 110.478L168.24 111.792L169.229 110.845C169.759 111.328 170.075 112.002 170.108 112.718C170.121 112.968 170.097 113.22 170.039 113.464C169.903 114.037 169.584 114.55 169.129 114.926C168.674 115.302 168.109 115.519 167.52 115.545Z" fill="#57B793"/>
<path opacity="0.1" d="M166.745 107.563C166.117 107.632 165.506 107.828 164.877 107.866C164.247 107.905 163.555 107.754 163.156 107.265C162.941 107.002 162.834 106.67 162.652 106.384C162.481 106.117 162.246 105.896 161.968 105.74C161.804 106.082 161.714 106.455 161.703 106.834C161.693 107.213 161.763 107.59 161.908 107.941C162.053 108.291 162.27 108.608 162.546 108.869C162.821 109.13 163.149 109.331 163.507 109.458C163.866 109.585 164.247 109.635 164.626 109.606C165.005 109.576 165.373 109.468 165.708 109.287C166.042 109.106 166.334 108.858 166.566 108.557C166.798 108.256 166.964 107.91 167.053 107.542C166.948 107.545 166.845 107.553 166.745 107.563Z" fill="black"/>
<path opacity="0.1" d="M167.52 115.545C167.051 115.569 166.584 115.471 166.164 115.26C165.744 115.05 165.387 114.735 165.126 114.345C164.865 113.955 164.71 113.505 164.676 113.038C164.643 112.571 164.731 112.103 164.933 111.68C165.149 111.825 165.334 112.011 165.479 112.227C165.673 112.519 165.789 112.855 166.018 113.123C166.44 113.62 167.165 113.783 167.822 113.752C168.479 113.721 169.111 113.537 169.76 113.477C169.849 113.477 169.942 113.462 170.033 113.46C169.898 114.033 169.58 114.546 169.127 114.923C168.673 115.299 168.109 115.517 167.52 115.545Z" fill="black"/>
<path opacity="0.1" d="M160.918 119.935C160.561 119.952 160.204 119.899 159.868 119.778C159.532 119.657 159.223 119.471 158.959 119.231C158.695 118.991 158.482 118.702 158.33 118.379C158.179 118.056 158.093 117.707 158.077 117.351C158.056 116.926 158.136 116.503 158.312 116.116C158.537 116.263 158.734 116.449 158.893 116.667C159.104 116.964 159.236 117.306 159.474 117.581C159.934 118.091 160.705 118.271 161.4 118.253C162.096 118.236 162.722 118.074 163.392 118.023C163.227 118.557 162.901 119.027 162.458 119.369C162.015 119.711 161.477 119.909 160.918 119.935Z" fill="black"/>
<path opacity="0.1" d="M162.261 125.21C162.114 125.534 161.905 125.827 161.646 126.071C161.386 126.315 161.08 126.506 160.747 126.633C160.413 126.759 160.058 126.819 159.701 126.808C159.344 126.798 158.993 126.717 158.667 126.571C158.342 126.425 158.048 126.217 157.803 125.958C157.558 125.699 157.367 125.394 157.24 125.061C157.114 124.728 157.054 124.374 157.064 124.018C157.075 123.662 157.156 123.312 157.302 122.987C157.525 123.135 157.726 123.314 157.899 123.518C158.157 123.833 158.327 124.189 158.627 124.485C159.184 125.028 160.081 125.258 160.879 125.273C161.341 125.279 161.802 125.258 162.261 125.21Z" fill="black"/>
<path d="M155.469 129.2C155.469 129.2 157.614 129.135 158.261 128.675C158.908 128.215 161.555 127.666 161.724 128.404C161.893 129.143 164.95 132.076 162.526 132.088C160.102 132.1 156.895 131.702 156.25 131.315C155.605 130.928 155.469 129.2 155.469 129.2Z" fill="#656380"/>
<path opacity="0.2" d="M162.569 131.831C160.147 131.85 156.938 131.445 156.293 131.058C155.802 130.76 155.605 129.688 155.541 129.193H155.469C155.469 129.193 155.605 130.919 156.244 131.319C156.884 131.719 160.096 132.107 162.52 132.092C163.22 132.092 163.462 131.837 163.449 131.47C163.358 131.688 163.09 131.827 162.569 131.831Z" fill="black"/>
<path fill-rule="evenodd" clip-rule="evenodd" d="M28.1383 67.4481C27.6963 73.4491 27.3982 79.4616 27.244 85.4857L27.2439 85.4879C27.1938 87.3656 27.216 88.7951 27.7456 89.9754L27.7465 89.9773C28.1051 90.7788 28.7393 91.5251 29.607 92.4096C31.7045 94.5436 34.048 96.4226 36.5885 98.0073C36.8068 98.1434 37.0334 98.2834 37.2663 98.4272C38.8642 99.4137 40.7585 100.583 42.2902 101.97C44.0782 103.589 45.6669 105.759 45.7147 108.663V108.663C45.7477 110.672 44.9957 112.397 44.1078 113.827C43.4249 114.926 42.5655 115.992 41.8203 116.916C41.6251 117.158 41.4378 117.39 41.2636 117.61C40.4312 118.664 39.7264 119.825 39.3733 120.924C39.025 122.008 39.0695 122.847 39.4299 123.513L35.9125 125.418C34.8661 123.485 35.0075 121.435 35.5651 119.7C36.1179 117.98 37.1279 116.393 38.1248 115.131C38.355 114.84 38.5798 114.56 38.7982 114.289C39.519 113.394 40.1697 112.586 40.7096 111.717C41.3869 110.626 41.7307 109.67 41.7152 108.728C41.6932 107.392 40.9916 106.19 39.6056 104.935C38.3672 103.814 36.8184 102.855 35.1889 101.846C34.9513 101.699 34.712 101.551 34.4716 101.401L34.4715 101.401C31.6633 99.6495 29.0728 97.5724 26.7539 95.2132L26.7526 95.2119C25.8499 94.2917 24.7679 93.1136 24.0957 91.6119M28.1383 67.4481L24.1491 67.1543L28.1383 67.4481ZM24.1491 67.1543C23.7024 73.2187 23.4011 79.2947 23.2453 85.3823L24.1491 67.1543ZM23.2453 85.3823C23.1985 87.1375 23.1378 89.4756 24.0953 91.611L23.2453 85.3823Z" fill="#3F3D56"/>
<path d="M19.29 66.9709C19.343 65.8645 19.6739 64.7892 20.2522 63.8436C20.8305 62.898 21.6377 62.1125 22.5996 61.5591L24.0839 64.4873L24.0393 60.9426C25.3878 60.5462 26.8276 60.5876 28.1509 61.0607C29.4743 61.5339 30.6126 62.4142 31.4016 63.5748C32.1906 64.7353 32.5894 66.1159 32.5404 67.5172C32.4914 68.9186 31.9972 70.2681 31.1292 71.371C30.2611 72.4739 29.0641 73.2731 27.7109 73.6532C26.3578 74.0333 24.9185 73.9746 23.601 73.4855C22.2835 72.9965 21.1559 72.1025 20.381 70.9326C19.6061 69.7626 19.2241 68.3773 19.29 66.9767V66.9709Z" fill="#57B793"/>
<path d="M31.114 111.726C31.7806 113.022 32.8576 114.062 34.1776 114.684C35.4977 115.307 36.9869 115.477 38.4139 115.169C39.8409 114.86 41.1258 114.09 42.069 112.978C43.0122 111.867 43.5608 110.475 43.6297 109.02C43.676 108.106 43.5287 107.192 43.1976 106.338C42.7135 105.085 41.8586 104.009 40.7466 103.252C39.6346 102.496 38.3181 102.095 36.9721 102.103C35.6262 102.11 34.3144 102.527 33.2113 103.296C32.1081 104.065 31.2658 105.151 30.7962 106.409L34.9371 109.768L30.3815 108.711C30.3796 109.76 30.6308 110.794 31.114 111.726Z" fill="#57B793"/>
<path d="M34.3868 98.8886C36.0125 98.9628 37.6087 98.438 38.8716 97.4143C40.1345 96.3906 40.9759 94.9394 41.2356 93.337C41.4953 91.7346 41.1551 90.0929 40.2799 88.7244C39.4047 87.356 38.0555 86.3563 36.4892 85.9158L36.5241 88.6391L35.0321 85.6761H35.0146C33.2578 85.5944 31.5404 86.2121 30.2402 87.3934C28.9399 88.5746 28.1634 90.2227 28.0815 91.9751C27.9995 93.7274 28.6188 95.4404 29.8031 96.7374C30.9874 98.0343 32.6397 98.8088 34.3965 98.8905L34.3868 98.8886Z" fill="#57B793"/>
<path d="M18.2921 88.2064C19.3185 88.2563 20.3426 88.0675 21.2833 87.655C22.2241 87.2425 23.0559 86.6175 23.713 85.8294C24.3701 85.0413 24.8345 84.1116 25.0697 83.1137C25.3048 82.1159 25.3043 81.0772 25.068 80.0796C24.8317 79.082 24.3662 78.1529 23.7082 77.3655C23.0502 76.5781 22.2177 75.9541 21.2765 75.5426C20.3353 75.1311 19.311 74.9435 18.2846 74.9945C17.2582 75.0456 16.2578 75.3339 15.3623 75.8366L16.5249 79.0393L14.124 76.7257C13.4823 77.3083 12.9619 78.0113 12.5929 78.7947C12.2238 79.5781 12.0132 80.4263 11.9732 81.2909C11.9424 81.9027 11.9992 82.5158 12.1418 83.1116C12.4713 84.5128 13.2503 85.7684 14.3603 86.6879C15.4702 87.6074 16.8507 88.1405 18.2921 88.2064Z" fill="#57B793"/>
<path opacity="0.1" d="M20.1814 68.7335C21.7122 68.9016 23.2003 69.3752 24.735 69.4699C26.2697 69.5646 27.9574 69.1993 28.9282 68.0087C29.4514 67.367 29.713 66.5552 30.1548 65.8556C30.5734 65.2037 31.1472 64.6652 31.8251 64.2881C32.2472 65.1262 32.4858 66.0443 32.525 66.9814C32.5642 67.9185 32.4031 68.8532 32.0525 69.7235C31.7018 70.5938 31.1696 71.3797 30.4912 72.0291C29.8127 72.6786 29.0035 73.1766 28.1173 73.4903C27.2312 73.804 26.2882 73.926 25.3511 73.8484C24.414 73.7708 23.5042 73.4952 22.682 73.0401C21.8598 72.5849 21.1441 71.9605 20.5823 71.2084C20.0206 70.4562 19.6256 69.5935 19.4237 68.6774C19.6814 68.689 19.9333 68.7064 20.1814 68.7335Z" fill="black"/>
<path opacity="0.1" d="M18.292 88.2063C19.4346 88.2589 20.5714 88.0159 21.592 87.5011C22.6127 86.9862 23.4825 86.2169 24.1172 85.2678C24.7519 84.3187 25.1298 83.2221 25.2143 82.0843C25.2987 80.9466 25.0869 79.8064 24.5993 78.7744C24.0729 79.1275 23.6202 79.5791 23.2662 80.1042C22.7934 80.8154 22.5085 81.6369 21.9524 82.2901C20.9196 83.5 19.1563 83.8963 17.5557 83.8248C15.9552 83.7532 14.4108 83.2971 12.818 83.1522C12.5971 83.1328 12.3723 83.1174 12.1495 83.1116C12.4787 84.5115 13.2564 85.7662 14.3649 86.6856C15.4733 87.605 16.852 88.1388 18.292 88.2063Z" fill="black"/>
<path opacity="0.1" d="M34.3868 98.8888C35.5182 98.9418 36.6443 98.7048 37.6578 98.2003C38.6712 97.6958 39.5382 96.9407 40.176 96.0071C40.8137 95.0734 41.201 93.9923 41.3009 92.867C41.4007 91.7416 41.2098 90.6095 40.7464 89.5786C40.2004 89.9404 39.7255 90.399 39.3454 90.9316C38.83 91.6564 38.5083 92.4913 37.9057 93.1601C36.7876 94.4028 34.908 94.8416 33.2125 94.801C31.5713 94.7662 29.9901 94.3642 28.3585 94.2385C28.7625 95.5376 29.5579 96.681 30.6365 97.5131C31.7152 98.3452 33.0247 98.8255 34.3868 98.8888Z" fill="black"/>
<path opacity="0.1" d="M31.1139 111.726C31.7805 113.022 32.8575 114.062 34.1776 114.685C35.4976 115.307 36.9868 115.477 38.4138 115.169C39.8409 114.86 41.1258 114.09 42.0689 112.979C43.0121 111.867 43.5608 110.475 43.6296 109.021C43.6759 108.106 43.5287 107.192 43.1975 106.338C42.652 106.695 42.1623 107.131 41.7443 107.631C41.1145 108.404 40.6979 109.266 39.9693 109.981C38.6129 111.307 36.4252 111.856 34.4778 111.914C33.3538 111.918 32.2305 111.855 31.1139 111.726Z" fill="black"/>
<path d="M83.5583 128.327L57.9805 133.545L57.3991 133.487L34.9216 131.226V102.814L62.4372 98.1753L82.3957 100.495L82.4015 100.62L82.4035 100.682L83.5583 128.327Z" fill="#03A803"/>
<path opacity="0.1" d="M83.5583 128.327L57.9805 133.545L57.3991 133.488V104.361L82.4015 100.621L83.5583 128.327Z" fill="black"/>
<path opacity="0.05" d="M82.4035 100.682L82.3957 100.688L57.3991 104.36L34.9216 102.814L62.4372 98.1753L82.3957 100.495L82.4015 100.62L82.4035 100.682Z" fill="black"/>
<path d="M111.655 129.486L86.0774 134.705L85.4961 134.647L63.0185 132.385V103.974L90.5341 99.335L110.493 101.654L110.498 101.78L110.5 101.842L111.655 129.486Z" fill="#3F3D56"/>
<path opacity="0.1" d="M111.655 129.487L86.0774 134.705L85.4961 134.647V105.52L110.498 101.78L111.655 129.487Z" fill="black"/>
<path opacity="0.05" d="M110.5 101.842L110.493 101.848L85.4961 105.52L63.0185 103.974L90.5342 99.335L110.493 101.654L110.498 101.78L110.5 101.842Z" fill="black"/>
<path d="M94.0221 101.655L68.4442 106.873L67.8628 106.815L45.3853 104.554V76.1421L72.9009 71.5034L92.8594 73.8228L92.8652 73.9484L92.8672 74.0102L94.0221 101.655Z" fill="#3F3D56"/>
<path opacity="0.1" d="M94.022 101.655L68.4441 106.873L67.8628 106.815V77.6882L92.8652 73.9482L94.022 101.655Z" fill="black"/>
<path opacity="0.05" d="M92.8672 74.0102L92.8594 74.016L67.8628 77.6883L45.3853 76.1421L72.9009 71.5034L92.8594 73.8227L92.8652 73.9484L92.8672 74.0102Z" fill="black"/>
<path d="M108.555 102.845L95.2059 105.57L94.9017 105.539L83.1708 104.358V89.5302L97.5312 87.1084L107.948 88.3202L107.952 88.386V88.4169L108.555 102.845Z" fill="#3F3D56"/>
<path opacity="0.1" d="M108.555 102.845L95.206 105.57L94.9017 105.539V90.3379L107.952 88.3857L108.555 102.845Z" fill="black"/>
<path opacity="0.05" d="M107.952 88.4169L107.948 88.4208L94.9017 90.3381L83.1708 89.5302L97.5312 87.1084L107.948 88.3203L107.952 88.386V88.4169Z" fill="black"/>
<path d="M72.7071 74.0468L59.3582 76.7701L59.054 76.7411L47.323 75.5601V60.7318L61.6834 58.3101L72.1006 59.5219L72.1045 59.5876V59.6185L72.7071 74.0468Z" fill="#3F3D56"/>
<path opacity="0.1" d="M72.7071 74.0465L59.3581 76.7698L59.0539 76.7408V61.5395L72.1045 59.5874L72.7071 74.0465Z" fill="black"/>
<path opacity="0.05" d="M72.1045 59.6185L72.1006 59.6224L59.054 61.5397L47.323 60.7318L61.6834 58.3101L72.1006 59.5219L72.1045 59.5876V59.6185Z" fill="black"/>
<path d="M96.1535 73.4667L82.8046 76.19L82.5004 76.161L70.7694 74.98V60.1518L85.1298 57.73L95.547 58.9418L95.5509 59.0075V59.0385L96.1535 73.4667Z" fill="#03A803"/>
<path opacity="0.1" d="M96.1535 73.4669L82.8046 76.1902L82.5003 76.1612V60.9599L95.5509 59.0078L96.1535 73.4669Z" fill="black"/>
<path opacity="0.05" d="M95.5509 59.0385L95.547 59.0423L82.5004 60.9597L70.7694 60.1518L85.1299 57.73L95.547 58.9418L95.5509 59.0075V59.0385Z" fill="black"/>
<path d="M103.129 58.5843L89.7804 61.3076L89.4761 61.2786L77.7452 60.0977V45.2694L92.1056 42.8477L102.523 44.0595L102.527 44.1252V44.1561L103.129 58.5843Z" fill="#3F3D56"/>
<path opacity="0.1" d="M103.129 58.5846L89.7804 61.3079L89.4761 61.2789V46.0776L102.527 44.1255L103.129 58.5846Z" fill="black"/>
<path opacity="0.05" d="M102.527 44.1562L102.523 44.16L89.4761 46.0773L77.7452 45.2694L92.1056 42.8477L102.523 44.0595L102.527 44.1252V44.1562Z" fill="black"/>
<path d="M112.221 28.2709C112.08 29.5273 111.118 30.54 110.762 31.75C110.227 33.5764 111.15 35.5382 112.421 36.9685C113.445 38.1049 114.685 39.0273 116.07 39.6822C117.454 40.3371 118.955 40.7115 120.485 40.7838C120.935 40.8224 121.388 40.7731 121.819 40.6388C122.202 40.4831 122.548 40.2472 122.832 39.9469C123.785 38.9901 124.299 37.6662 124.502 36.3306C124.706 34.9951 124.628 33.6363 124.549 32.2892C124.549 32.0104 124.498 31.734 124.398 31.4736C124.268 31.2259 124.089 31.007 123.873 30.83C123.185 30.2 122.428 29.6507 121.615 29.1929C121.266 28.9996 120.892 28.8063 120.67 28.472C120.517 28.2057 120.417 27.9122 120.377 27.608L120.127 26.3401C120.083 25.9745 119.958 25.6233 119.761 25.3119C119.321 24.7204 118.478 24.6393 117.74 24.6103L115.027 24.504C114.184 24.4711 113.076 24.2295 112.252 24.3957C111.477 24.5484 111.739 25.2558 111.878 25.8975C112.08 26.6736 112.195 27.4696 112.221 28.2709Z" fill="#FFC0C6"/>
<path opacity="0.1" d="M112.221 28.2709C112.08 29.5273 111.118 30.54 110.762 31.75C110.227 33.5764 111.15 35.5382 112.421 36.9685C113.445 38.1049 114.685 39.0273 116.07 39.6822C117.454 40.3371 118.955 40.7115 120.485 40.7838C120.935 40.8224 121.388 40.7731 121.819 40.6388C122.202 40.4831 122.548 40.2472 122.832 39.9469C123.785 38.9901 124.299 37.6662 124.502 36.3306C124.706 34.9951 124.628 33.6363 124.549 32.2892C124.549 32.0104 124.498 31.734 124.398 31.4736C124.268 31.2259 124.089 31.007 123.873 30.83C123.185 30.2 122.428 29.6507 121.615 29.1929C121.266 28.9996 120.892 28.8063 120.67 28.472C120.517 28.2057 120.417 27.9122 120.377 27.608L120.127 26.3401C120.083 25.9745 119.958 25.6233 119.761 25.3119C119.321 24.7204 118.478 24.6393 117.74 24.6103L115.027 24.504C114.184 24.4711 113.076 24.2295 112.252 24.3957C111.477 24.5484 111.739 25.2558 111.878 25.8975C112.08 26.6736 112.195 27.4696 112.221 28.2709Z" fill="black"/>
<path d="M129.449 84.8549L128.298 97.4412C127.998 100.742 127.692 104.057 127.103 107.316C126.909 108.439 126.661 109.556 126.378 110.663C125.591 113.738 124.45 116.744 124.082 119.896C124.07 119.987 124.061 120.089 124.051 120.173C123.975 120.868 123.909 121.572 123.663 122.221C123.47 122.703 123.196 123.141 122.997 123.617C122.609 124.568 122.547 125.619 122.499 126.649C121.102 125.863 119.572 125.339 117.986 125.103C117.211 124.989 116.368 124.91 115.854 124.33C115.273 123.7 115.341 122.735 115.438 121.889C115.743 119.26 116.046 116.633 116.348 114.007C116.449 112.877 116.644 111.757 116.93 110.659C117.034 110.294 117.16 109.935 117.288 109.575C117.465 109.08 117.643 108.586 117.777 108.077C117.962 107.261 118.09 106.432 118.16 105.597C118.472 102.953 118.848 100.315 119.177 97.6731L119.195 97.5339C119.689 93.5292 120.065 89.5052 119.956 85.4715C119.941 84.8742 119.916 84.277 119.877 83.6778C119.823 82.81 119.743 82.35 120.458 81.8069C121.255 81.2077 122.303 80.7883 123.214 80.396C123.704 80.1834 129.102 78.2699 129.221 78.6913C129.471 79.5862 129.602 80.5105 129.608 81.4397C129.619 82.5801 129.566 83.7203 129.449 84.8549Z" fill="#605D82"/>
<path opacity="0.1" d="M127.103 107.315C126.909 108.438 126.661 109.556 126.378 110.663C125.591 113.738 124.45 116.744 124.082 119.896C124.07 119.987 124.061 120.089 124.051 120.172C121.644 116.744 119.617 113.056 117.269 109.59C117.445 109.096 117.623 108.601 117.757 108.092C117.95 107.271 118.085 106.437 118.16 105.597C118.472 102.953 118.848 100.315 119.178 97.6729L119.195 97.5337C119.331 98.0944 119.526 98.6392 119.776 99.1592C121.354 102.356 125.101 103.972 126.934 107.031C126.995 107.127 127.051 107.221 127.103 107.315Z" fill="black"/>
<path d="M107.574 79.2093C107.654 81.7722 108.065 84.3138 108.475 86.8457L109.322 92.0642C109.785 94.9247 110.27 97.8413 111.626 100.402C112.642 102.32 114.103 103.955 115.426 105.673C118.678 109.898 121.121 114.685 124.204 119.034C125.101 120.298 126.382 121.667 127.911 121.402C128.915 121.23 129.643 120.395 130.43 119.753C131.36 118.996 132.48 118.441 133.212 117.49C133.945 116.539 134.088 114.962 133.096 114.285C132.757 114.055 132.344 113.968 131.961 113.822C130.424 113.242 129.428 111.742 128.796 110.227C128.165 108.711 127.779 107.086 126.936 105.677C125.103 102.617 121.354 101.001 119.776 97.8027C118.893 96.0129 118.807 93.9371 118.741 91.9521L118.569 86.867C118.55 86.3103 118.536 85.7324 118.763 85.2241C119.365 83.8712 121.187 83.7436 122.663 83.5716C124.338 83.3766 125.96 82.8663 127.444 82.0679C128.294 81.6098 129.124 81.0261 129.575 80.1757C129.99 79.4026 130.046 78.4923 130.095 77.6148L130.606 68.3973C130.651 67.6049 130.689 66.7835 130.412 66.0413C129.709 64.1742 127.345 63.5635 125.347 63.6524C121.631 63.8186 118.201 65.4131 114.69 66.4916C113.82 66.7584 112.946 66.998 112.049 67.1778C111.274 67.3343 110.305 67.2705 109.561 67.5218C108.227 67.9702 108.26 70.881 108.072 72.087C107.685 74.4405 107.518 76.8249 107.574 79.2093Z" fill="#605D82"/>
<path d="M127.407 121.792C127.734 122.123 127.841 122.606 127.926 123.062C128.4 125.593 128.646 128.162 128.663 130.737C128.641 130.977 128.689 131.219 128.8 131.433C128.893 131.56 129.018 131.66 129.163 131.723C130.11 132.173 131.209 131.545 131.999 130.855C133.462 129.577 134.701 127.861 134.784 125.923C134.805 125.424 134.749 124.919 134.836 124.427C134.964 123.696 135.392 123.06 135.768 122.422C136.411 121.335 136.931 120.18 137.318 118.978C137.462 118.526 137.559 117.958 137.202 117.643C137.077 117.544 136.935 117.469 136.782 117.424L132.499 115.839C132.127 115.702 131.205 118.066 131.06 118.325C130.701 118.957 130.345 119.314 129.626 119.461C128.907 119.608 128.019 119.396 127.333 119.761C126.171 120.377 126.75 121.133 127.407 121.792Z" fill="#535070"/>
<path d="M120.803 123.251C120.724 123.094 120.613 122.954 120.478 122.84C120.28 122.714 120.054 122.638 119.821 122.618C119.007 122.478 118.042 122.388 117.478 122.992C116.951 123.559 117.042 124.481 116.602 125.119C116.463 125.312 116.273 125.486 116.153 125.698C116.003 126.024 115.937 126.381 115.959 126.738C115.936 127.722 115.912 128.71 115.982 129.691C116.038 130.515 116.176 131.379 116.693 132.024C117.523 133.06 119.019 133.209 120.344 133.275L121.419 133.331C121.715 133.365 122.015 133.338 122.299 133.25C122.475 133.169 122.633 133.053 122.764 132.91C122.894 132.767 122.995 132.599 123.059 132.417C123.619 131.029 122.733 129.535 122.187 128.143C121.557 126.541 121.669 124.765 120.803 123.251Z" fill="#535070"/>
<path d="M111.911 21.1869C111.897 21.0462 111.918 20.9043 111.971 20.7733C112.128 20.4969 112.539 20.58 112.849 20.6496C114.095 20.9627 115.409 20.6786 116.693 20.7521C117.978 20.8255 119.424 21.4653 119.681 22.7216C120.613 22.0636 121.417 21.2408 122.051 20.294C122.408 19.7625 122.718 19.1536 122.669 18.5158C122.599 17.5958 121.826 16.9078 121.119 16.3241L118.988 14.5846C118.707 14.3277 118.383 14.1222 118.03 13.9777C117.538 13.8095 116.999 13.8907 116.48 13.8907C114.93 13.8907 113.267 13.1852 111.886 13.8907C111.305 14.1864 110.872 14.6947 110.454 15.1895L108.549 17.4393C108.405 17.5827 108.3 17.7602 108.243 17.9553C108.189 18.2298 108.33 18.5004 108.381 18.7768C108.47 19.2793 108.253 19.8166 108.419 20.2998C108.696 21.1 109.673 21.214 110.27 21.674C110.491 21.8441 110.839 22.4258 111.105 22.4181C111.572 22.4084 111.897 21.558 111.911 21.1869Z" fill="#3F3D56"/>
<path d="M115.143 27.8225C118.514 27.8225 121.247 25.0967 121.247 21.7342C121.247 18.3718 118.514 15.646 115.143 15.646C111.772 15.646 109.039 18.3718 109.039 21.7342C109.039 25.0967 111.772 27.8225 115.143 27.8225Z" fill="#FFC0C6"/>
<path d="M116.573 35.0566C116.366 34.4665 115.977 33.9572 115.461 33.6022C114.945 33.2472 114.33 33.0648 113.703 33.0813C113.524 33.1155 113.338 33.0918 113.172 33.0137C113.079 32.9423 113.004 32.8495 112.954 32.7431C112.583 32.0768 112.285 31.3732 112.064 30.6441C111.967 30.3213 111.834 29.9406 111.506 29.8574C111.243 29.7898 110.973 29.9599 110.797 30.1667C110.641 30.3886 110.471 30.601 110.289 30.8026C109.514 31.4868 108.158 30.8625 107.346 31.4906C107.212 31.5931 107.102 31.7245 106.958 31.8192C106.819 31.904 106.668 31.9691 106.511 32.0125C104.935 32.5239 103.39 33.126 101.883 33.8158C102.426 37.0706 102.98 40.3872 104.251 43.4314C104.856 44.8809 105.54 46.3015 106.024 47.7956C107.098 51.1064 107.144 54.6492 107.158 58.1301C107.158 60.5113 107.158 62.9428 106.383 65.1964C106.208 65.7066 105.995 66.213 105.947 66.7426C105.898 67.2722 106.057 67.8714 106.493 68.1883C106.746 68.3544 107.035 68.4559 107.336 68.4841C108.675 68.6773 110.024 68.3256 111.341 68.0202C114.874 67.2045 118.478 66.7368 122.072 66.2807L128.099 65.5076C128.531 65.4774 128.954 65.368 129.347 65.1848C130.449 64.5837 130.554 62.9292 129.868 61.8778C129.54 61.3734 129.077 60.9597 128.8 60.4263C128.523 59.8928 128.502 59.1429 128.977 58.7738C129.945 58.02 129.655 56.6226 129.701 55.4011C129.83 51.9839 129.813 48.5693 129.649 45.1573C129.6 44.4498 129.588 43.7401 129.614 43.0313C129.682 41.8291 129.98 40.652 130.279 39.4827L132.11 32.2928C131.631 31.539 130.715 31.0596 129.848 30.8432C128.982 30.6267 128.077 30.5629 127.223 30.2981C125.479 29.7569 123.913 28.3847 122.086 28.5122C121.947 28.5147 121.811 28.5477 121.687 28.6089C121.276 28.8427 121.34 29.4342 121.315 29.9058C121.257 30.9514 120.485 31.8231 119.637 32.4358C118.788 33.0485 117.815 33.493 117.034 34.1907C116.899 34.2927 116.787 34.4231 116.708 34.5727C116.628 34.7223 116.582 34.8875 116.573 35.0566Z" fill="#3F3D56"/>
<path d="M92.3885 41.8775C91.9843 42.1397 91.5545 42.3605 91.1058 42.5366C90.6795 42.7048 90.2241 42.8381 89.8753 43.1319C89.7026 43.2814 89.5577 43.46 89.4471 43.6596C89.2406 44.025 89.1362 44.4391 89.1448 44.8585C89.1534 45.2779 89.2746 45.6874 89.4959 46.0441C89.7172 46.4009 90.0304 46.6919 90.4029 46.8868C90.7753 47.0817 91.1934 47.1733 91.6135 47.1521C92.1735 47.1231 92.7025 46.897 93.2159 46.6747L97.5215 44.8057C98.2501 44.4907 99.0368 44.1234 99.3818 43.4083C99.4213 43.3413 99.4363 43.2628 99.4244 43.186C99.391 43.1018 99.3275 43.0329 99.2461 42.9928C98.2759 42.3631 97.4272 41.5644 96.7407 40.6348C96.5643 40.3951 96.3531 39.8307 96.0973 39.6858C95.1866 39.1813 93.1191 41.4059 92.3885 41.8775Z" fill="#FFC0C6"/>
<path d="M138.413 40.3604L140 42.1694C140.341 42.556 140.682 42.9425 140.992 43.36C141.755 44.4081 142.367 45.5577 142.81 46.7752C143.155 47.6779 143.442 48.6404 143.321 49.599C143.241 50.0905 143.108 50.572 142.924 51.0351C142.633 51.9254 142.273 52.7914 141.845 53.625C141.488 54.2575 141.084 54.8628 140.638 55.436C139.408 57.0606 138.063 58.5947 136.613 60.0264C136.07 60.5618 135.838 61.4296 135.607 62.1524C135.171 63.488 134.135 64.5298 133.133 65.5155C132.811 65.8552 132.454 66.1609 132.069 66.4277C131.492 66.799 130.818 66.9901 130.131 66.9767C129.832 66.9784 129.535 66.9171 129.261 66.7969C128.575 66.4722 128.227 65.6817 128.155 64.9279C128.092 64.243 128.206 63.5533 128.488 62.9255C129.399 60.9135 131.738 60.0418 133.391 58.5729C134.359 57.7128 135.102 56.6305 135.834 55.5617C136.33 54.8936 136.745 54.1688 137.068 53.4027C137.437 52.419 137.293 51.2554 137.617 50.2581C137.752 49.8348 138.004 49.4541 138.142 49.0347C138.279 48.6153 138.326 48.1185 138.068 47.7571C137.875 47.526 137.628 47.3456 137.349 47.2314C136.293 46.6979 135.111 46.0099 134.91 44.8444C134.829 44.199 134.998 43.5472 135.383 43.0218C135.765 42.5031 136.212 42.0355 136.714 41.6302C137.173 41.2166 137.95 40.7585 138.413 40.3604Z" fill="#FFC0C6"/>
<path d="M91.3693 44.402C91.0902 43.8376 90.7395 43.2616 90.1737 42.9814C89.8984 42.8629 89.6016 42.8018 89.3017 42.8018C89.0019 42.8018 88.7051 42.8629 88.4298 42.9814C87.8815 43.2178 87.3678 43.5273 86.9028 43.9014L85.5348 44.9084C85.2247 45.1114 84.9504 45.3641 84.7229 45.6563C84.506 46.0109 84.3623 46.4052 84.3005 46.816C84.1067 47.7573 83.9498 48.7256 84.0854 49.6784C84.3024 51.2247 85.2325 52.5622 86.2556 53.7373C86.8951 54.4679 87.6857 55.2062 88.6584 55.2391C89.0789 55.2526 89.5459 55.0864 89.7203 54.7056C89.7811 54.5543 89.8133 54.3931 89.8152 54.2301C89.9199 52.5138 89.3037 50.8381 88.5867 49.2745C88.393 48.8493 88.1837 48.4086 88.1992 47.9428C88.1932 47.8637 88.2137 47.7849 88.2573 47.7186C88.3188 47.6543 88.4012 47.6139 88.4898 47.6046C89.4723 47.4113 91.1658 48.1728 91.8537 47.0847C92.2994 46.3657 91.6871 45.0417 91.3693 44.402Z" fill="#FFC0C6"/>
<path d="M111.589 19.2719C111.577 19.1311 111.598 18.9894 111.651 18.8583C111.808 18.58 112.219 18.665 112.529 18.7346C113.775 19.0477 115.089 18.7636 116.374 18.837C117.658 18.9105 119.102 19.5502 119.362 20.8065C120.293 20.1475 121.096 19.3249 121.731 18.3789C122.088 17.8455 122.398 17.2367 122.349 16.5989C122.28 15.6789 121.505 14.9908 120.799 14.409L118.668 12.6695C118.388 12.4126 118.064 12.2072 117.713 12.0626C117.218 11.8945 116.682 11.9756 116.162 11.9756C114.612 11.9756 112.95 11.2702 111.568 11.9756C110.987 12.2714 110.555 12.7797 110.136 13.2745L108.229 15.5242C108.086 15.668 107.981 15.8455 107.925 16.0403C107.871 16.3147 108.012 16.5853 108.063 16.8617C108.152 17.3642 107.935 17.9015 108.101 18.3828C108.379 19.1849 109.355 19.2989 109.952 19.759C110.173 19.929 110.522 20.5108 110.787 20.5031C111.246 20.4934 111.572 19.643 111.589 19.2719Z" fill="#3F3D56"/>
<path d="M98.6261 35.9555C98.3801 36.1149 98.1637 36.3156 97.9867 36.5489C97.7638 36.8871 97.7173 37.322 97.5255 37.6699C97.1147 38.4314 96.1516 38.7039 95.5529 39.3282C95.4558 39.4136 95.388 39.5271 95.3591 39.6529C95.3554 39.8229 95.4124 39.9887 95.5199 40.1207L98.4149 44.6588C99.3837 44.7439 100.302 44.1408 101.267 44.222C101.626 44.251 101.996 44.3747 102.341 44.2684C102.587 44.1589 102.818 44.0179 103.029 43.849C103.61 43.4856 104.369 43.4431 104.852 42.9657C105.334 42.4883 105.375 41.7867 105.369 41.1354C105.378 40.5701 105.32 40.0057 105.197 39.4539C104.771 37.7144 103.436 36.373 102.598 34.8307C102.19 34.0788 101.969 33.6401 101.106 34.1561C100.244 34.6722 99.4419 35.3602 98.6261 35.9555Z" fill="#3F3D56"/>
<path d="M133.778 33.6614C134.322 34.0138 134.813 34.442 135.235 34.9331C135.675 35.4995 135.925 36.1953 136.35 36.7751C136.774 37.3549 137.318 37.7724 137.783 38.2904C138.491 39.0751 138.969 40.0299 139.438 40.9789C138.29 42.4687 137.039 43.8766 135.695 45.1923C135.545 45.3683 135.347 45.4972 135.125 45.5634C134.975 45.5796 134.822 45.5581 134.682 45.5011C134.542 45.4441 134.419 45.3533 134.323 45.2368C134.113 45.0203 133.966 44.7497 133.767 44.5236C133.296 44.0399 132.67 43.7379 131.997 43.6712C131.331 43.6065 130.66 43.5968 129.992 43.6423C129.845 43.6596 129.697 43.6348 129.564 43.5707C129.465 43.503 129.385 43.4112 129.331 43.304C128.556 41.9743 128.798 40.3043 129.075 38.7852L129.709 35.3062C129.801 34.6419 129.979 33.9924 130.238 33.3734C130.478 32.8612 131.013 31.9915 131.676 32.1461C132.338 32.3007 133.218 33.2594 133.778 33.6614Z" fill="#3F3D56"/>
<path d="M78.5203 59.1644L65.1713 61.8877L64.8671 61.8587L53.1362 60.6778V45.8495L67.4966 43.4277L77.9138 44.6396L77.9177 44.7053V44.7362L78.5203 59.1644Z" fill="#03A803"/>
<path opacity="0.1" d="M78.5203 59.1642L65.1713 61.8875L64.8671 61.8585V46.6572L77.9176 44.7051L78.5203 59.1642Z" fill="black"/>
<path opacity="0.05" d="M77.9177 44.7362L77.9138 44.7401L64.8671 46.6574L53.1362 45.8495L67.4966 43.4277L77.9138 44.6396L77.9177 44.7053V44.7362Z" fill="black"/>
<path d="M85.4961 44.475L72.1471 47.2002L71.8429 47.1693L60.1119 45.9883V31.1601L74.4724 28.7383L84.8896 29.9501L84.8934 30.0158V30.0468L85.4961 44.475Z" fill="#3F3D56"/>
<path opacity="0.1" d="M85.496 44.4752L72.1471 47.2005L71.8429 47.1695V31.9682L84.8934 30.0161L85.496 44.4752Z" fill="black"/>
<path opacity="0.05" d="M84.8934 30.0468L84.8896 30.0506L71.8429 31.968L60.1119 31.1601L74.4724 28.7383L84.8896 29.9501L84.8934 30.0159V30.0468Z" fill="black"/>
</g>
<defs>
<clipPath id="clip0">
<rect width="184" height="136" fill="white"/>
</clipPath>
</defs>
</svg>
